<?xml version="1.0" standalone="no"?>
<!DOCTYPE svg PUBLIC "-//W3C//DTD SVG 20010904//EN"
 "http://www.w3.org/TR/2001/REC-SVG-20010904/DTD/svg10.dtd">
<svg version="1.0" xmlns="http://www.w3.org/2000/svg"
 width="213.000000pt" height="236.000000pt" viewBox="0 0 213.000000 236.000000"
 preserveAspectRatio="xMidYMid meet">
<metadata>
Created by potrace 1.16, written by Peter Selinger 2001-2019
</metadata>
<g transform="translate(0.000000,236.000000) scale(0.100000,-0.100000)"
fill="#000000" stroke="none">
<path d="M0 2296 l0 -63 93 -84 c50 -46 137 -127 192 -181 55 -53 102 -95 104
-93 2 3 -16 28 -41 57 -25 29 -50 62 -56 73 -9 18 -97 140 -125 175 -7 8 -23
31 -37 50 -46 66 -103 130 -117 130 -9 0 -13 -17 -13 -64z M176 2333 c9 -16
61 -82 114 -148 53 -66 109 -137 124 -157 l28 -38 -21 -80 c-13 -48 -23 -115
-24 -168 l-2 -89 -45 36 c-46 38 -102 78 -200 145 l-55 37 45 -41 c66 -61 191
-161 222 -179 32 -18 38 -43 27 -108 -17 -106 -11 -162 24 -227 24 -44 35 -79
39 -124 7 -73 27 -109 69 -124 18 -6 37 -24 48 -47 23 -43 47 -66 123 -116 35
-23 55 -42 50 -49 -4 -6 -14 -31 -22 -55 -11 -33 -26 -53 -55 -73 -22 -15 -43
-27 -47 -28 -3 0 -9 18 -13 39 -3 22 -16 47 -27 58 -12 10 -29 31 -39 47 l-18
30 37 23 c42 25 29 30 -24 8 -45 -19 -70 -9 -112 44 -33 41 -35 42 -88 40 -31
-2 -60 3 -66 9 -7 7 -30 13 -52 13 l-41 1 50 13 c48 13 45 13 -87 14 l-138 1
0 -30 c0 -35 0 -35 91 -14 39 9 73 14 75 11 3 -3 -3 -8 -13 -11 -24 -8 -63
-75 -63 -109 0 -14 -11 -38 -24 -54 -33 -40 -46 -68 -46 -100 0 -16 -5 -34
-10 -39 -7 -7 -8 -41 -4 -94 6 -72 11 -87 37 -117 l29 -33 -36 -33 -36 -33 0
-192 0 -192 449 0 449 0 -24 82 c-13 46 -30 103 -39 128 -9 25 -26 74 -36 110
l-19 65 35 72 c31 63 38 71 61 69 14 -2 42 -20 63 -40 31 -30 42 -52 55 -104
22 -92 22 -162 -1 -162 -17 -1 -17 -1 -1 -14 15 -11 17 -21 9 -67 -16 -94 -19
-139 -10 -139 5 0 9 6 10 13 0 6 5 48 11 92 6 44 10 103 9 132 -1 42 5 62 33
110 29 49 55 140 56 196 0 19 50 26 84 12 39 -16 140 -131 132 -149 -39 -89
-103 -231 -139 -308 l-46 -98 495 0 494 0 0 233 -1 234 -37 20 c-20 11 -77 42
-127 68 -49 26 -151 84 -225 128 -74 44 -138 82 -142 84 -5 2 -8 2 -8 -1 0 -3
46 -42 101 -86 56 -44 97 -80 92 -80 -5 0 -34 8 -64 19 -161 55 -293 138 -338
211 -17 28 -31 52 -31 55 0 2 24 20 53 38 63 41 111 93 128 142 10 25 23 41
46 50 45 19 65 55 68 127 2 39 14 88 30 128 22 53 26 76 23 127 -2 35 0 63 5
63 5 0 38 21 75 47 91 65 255 193 246 193 -11 0 -123 -69 -236 -146 -58 -40
-109 -70 -112 -67 -3 4 -6 25 -6 49 0 42 1 43 113 131 61 50 151 119 200 156
156 117 147 105 147 187 l0 72 -27 -23 c-16 -13 -68 -68 -118 -123 -130 -143
-307 -326 -315 -326 -4 0 -10 28 -13 63 -3 34 -9 76 -12 92 -5 26 4 43 65 125
39 52 78 103 86 113 7 9 25 38 39 65 14 26 33 58 42 72 41 66 -150 -165 -205
-247 -35 -53 -52 -66 -52 -39 0 26 -92 151 -144 194 -57 48 -151 96 -209 106
-34 6 -38 10 -34 29 3 12 9 34 12 50 6 21 4 27 -9 27 -11 0 -17 -14 -22 -51
l-7 -51 -36 8 c-20 4 -103 8 -186 9 l-150 2 -3 42 c-2 22 -8 41 -14 41 -9 0
-5 -51 8 -84 3 -8 -11 -17 -38 -25 -24 -7 -68 -26 -98 -42 l-54 -29 -32 88
c-25 69 -35 88 -53 90 -19 3 -18 -4 24 -90 42 -85 44 -94 29 -103 -32 -18
-115 -98 -132 -127 -9 -15 -19 -28 -22 -28 -6 0 -20 21 -136 207 -86 137 -90
143 -123 143 l-33 0 18 -27z m969 -149 c26 -12 27 -14 5 -9 -14 2 -44 5 -67 5
-24 0 -43 5 -43 10 0 15 71 11 105 -6z m-126 -25 c28 -12 50 -23 48 -25 -2 -2
-30 7 -63 21 -32 13 -54 24 -48 25 6 0 35 -10 63 -21z m-84 -34 c22 -18 15
-17 -27 5 -16 7 -28 17 -28 22 0 10 25 -3 55 -27z m-265 -4 c0 -5 3 -18 6 -28
6 -16 5 -16 -9 2 -19 23 -21 35 -7 35 6 0 10 -4 10 -9z m211 -17 l24 -27 -32
17 c-18 9 -33 21 -33 26 0 17 16 11 41 -16z m-36 -34 c4 -6 11 -10 17 -10 6 0
7 5 2 13 -5 7 1 2 13 -12 28 -32 25 -35 -18 -17 -33 14 -56 34 -74 65 -9 16
50 -23 60 -39z m-226 -16 c-18 -22 -22 -11 -7 22 10 21 14 24 16 10 2 -9 -2
-24 -9 -32z m537 -31 c-6 -7 -96 39 -96 48 0 6 22 -2 49 -18 28 -15 49 -29 47
-30z m319 47 c3 -5 -1 -10 -9 -10 -8 0 -18 5 -21 10 -3 6 1 10 9 10 8 0 18 -4
21 -10z m-885 -13 c0 -7 -7 -22 -15 -33 -13 -17 -14 -16 -4 14 11 33 19 41 19
19z m836 -18 c19 -22 19 -22 -3 -10 -24 12 -39 31 -25 31 5 0 17 -10 28 -21z
m-336 -55 c0 -12 -61 29 -71 48 -10 18 -4 16 30 -11 22 -18 41 -35 41 -37z
m374 -23 c-6 -7 -85 52 -95 71 -6 11 14 0 44 -24 29 -24 52 -45 51 -47z m-643
14 c73 -54 182 -107 247 -119 l33 -6 -53 49 c-29 27 -51 51 -48 54 3 3 49 -9
103 -27 107 -35 111 -33 76 35 l-20 41 52 -28 c29 -16 71 -46 93 -66 21 -21
41 -38 43 -38 2 0 0 19 -3 43 l-6 42 20 -20 c12 -11 30 -38 41 -60 l20 -40 1
35 0 35 24 -25 c13 -14 21 -29 18 -35 -3 -5 -2 -7 3 -3 9 9 35 -9 35 -24 0 -6
-7 -7 -16 -4 -10 4 -5 -7 12 -26 26 -32 27 -33 6 -36 l-22 -3 22 -29 c11 -16
18 -36 15 -44 -4 -9 -1 -16 5 -16 7 0 7 -4 1 -12 -18 -23 -22 -46 -9 -51 9 -4
12 3 10 21 -3 23 -2 22 8 -6 10 -29 9 -36 -9 -53 -18 -18 -21 -19 -26 -5 -4
11 -1 16 10 16 19 0 -86 84 -140 111 -33 17 -43 18 -75 8 -33 -10 -132 -62
-173 -91 -9 -6 -24 -8 -33 -5 -19 8 -22 57 -3 76 10 11 10 13 0 7 -24 -13 -13
12 13 33 14 11 24 25 22 30 -1 5 -16 -1 -33 -15 -29 -23 -30 -28 -35 -118 -3
-52 -2 -92 3 -89 4 2 7 -3 7 -11 0 -20 -86 -23 -89 -3 -1 6 -6 58 -13 115 -9
89 -13 102 -29 102 -11 0 -19 5 -19 10 0 6 -7 10 -15 10 -22 0 -19 -8 14 -36
23 -19 30 -34 33 -73 2 -39 0 -47 -11 -43 -10 4 -12 1 -6 -9 6 -9 1 -8 -15 4
-36 25 -127 71 -182 92 -46 17 -48 17 -90 -5 -24 -12 -52 -30 -64 -41 -11 -11
-24 -16 -28 -12 -4 5 -7 4 -5 -2 4 -18 -13 -44 -26 -39 -7 3 -16 0 -21 -7 -4
-7 -3 -10 4 -5 6 3 14 1 18 -5 3 -6 0 -15 -7 -20 -9 -6 -10 -9 -2 -9 7 0 17 8
22 18 12 19 14 8 5 -25 -6 -21 -7 -21 -31 -6 -24 16 -24 18 -20 127 7 182 65
315 156 363 69 36 97 31 182 -32z m435 23 c-16 27 15 10 37 -20 22 -30 44 -78
35 -78 -2 0 -33 30 -68 67 -45 45 -54 59 -31 43 19 -13 31 -19 27 -12z m-732
-22 c-3 -14 -10 -26 -15 -26 -5 0 -9 -10 -10 -22 0 -22 -1 -22 -9 -3 -6 15 -9
8 -10 -30 -1 -46 -2 -48 -12 -22 -11 31 1 70 35 113 23 30 30 26 21 -10z m629
-45 c17 -17 -78 20 -103 40 -21 16 -15 15 35 -6 33 -14 64 -30 68 -34z m390
-48 c-7 -2 -21 -2 -30 0 -10 3 -4 5 12 5 17 0 24 -2 18 -5z m7 -47 c0 -9 -41
8 -52 22 -11 13 -8 12 20 -2 17 -9 32 -18 32 -20z m48 -161 c-3 -3 -9 2 -12
12 -6 14 -5 15 5 6 7 -7 10 -15 7 -18z m-919 -25 c-6 -5 -19 -6 -27 -2 -13 4
-12 7 4 12 23 9 41 1 23 -10z m681 10 c13 -8 13 -10 -2 -10 -9 0 -20 5 -23 10
-8 13 5 13 25 0z m8 -25 c2 -1 -4 -5 -12 -8 -8 -3 -22 1 -33 9 -17 13 -16 14
12 8 17 -4 31 -8 33 -9z m-699 -4 c9 -6 10 -11 2 -15 -6 -4 -11 -2 -11 4 0 7
-9 9 -22 5 -18 -5 -20 -4 -8 4 18 13 21 13 39 2z m106 -10 c3 -5 0 -13 -6 -17
-8 -5 -9 -3 -4 6 6 10 3 12 -13 8 -12 -4 -20 -2 -16 3 7 12 31 12 39 0z m525
-1 c0 -5 -2 -10 -4 -10 -3 0 -8 5 -11 10 -3 6 -1 10 4 10 6 0 11 -4 11 -10z
m-65 -10 c3 -5 2 -10 -4 -10 -5 0 -13 5 -16 10 -3 6 -2 10 4 10 5 0 13 -4 16
-10z m-612 -25 c-3 -9 -8 -13 -11 -11 -3 3 -10 2 -17 -2 -6 -4 -2 1 8 11 24
21 28 21 20 2z m838 -2 c13 -17 13 -17 -6 -3 -11 8 -22 16 -24 17 -2 2 0 3 6
3 6 0 17 -8 24 -17z m191 -20 c34 -57 28 -121 -19 -218 -18 -38 -22 -59 -17
-88 8 -49 -11 -94 -47 -113 -16 -8 -29 -13 -29 -12 0 2 8 39 16 83 25 127 27
167 10 190 -15 19 -16 17 -11 -25 3 -32 2 -38 -4 -20 -5 17 -9 -11 -12 -90 -4
-111 -6 -118 -41 -181 -21 -36 -55 -82 -77 -102 -47 -42 -115 -79 -139 -75 -9
2 -17 -3 -17 -10 0 -16 -26 -33 -39 -25 -5 3 -6 1 -3 -4 7 -12 -14 -23 -43
-23 -10 0 -20 -5 -22 -11 -5 -14 -189 -23 -254 -13 -23 3 -54 17 -70 30 -21
17 -23 22 -9 17 21 -7 21 -5 -9 17 -16 12 -18 12 -12 1 10 -16 8 -16 -70 27
-125 68 -174 145 -188 292 -4 41 -14 92 -21 115 -7 22 -16 63 -20 90 l-7 50
26 -24 c14 -14 26 -30 26 -36 0 -23 49 -65 75 -65 23 0 25 -2 15 -21 -11 -19
-10 -20 9 -10 11 6 23 16 26 21 3 6 29 10 57 10 28 0 49 3 46 6 -3 3 -41 5
-84 5 -84 0 -131 17 -120 45 3 8 2 13 -3 10 -12 -8 -20 26 -13 59 7 38 53 62
131 71 85 9 198 -8 216 -33 18 -24 12 -27 -22 -10 -75 38 -141 33 -206 -17
-35 -27 -48 -31 -67 -24 -13 5 -28 7 -34 4 -6 -2 4 -7 22 -11 31 -7 32 -8 16
-26 -18 -20 -16 -23 10 -13 9 3 16 12 16 20 0 18 -4 18 54 -11 59 -30 109 -32
170 -5 50 21 56 18 29 -13 -17 -19 -17 -20 5 -8 13 7 22 8 22 2 0 -10 -46 -25
-105 -35 -16 -2 -4 -3 27 -2 39 2 64 9 78 21 19 18 20 18 20 -3 0 -13 -10 -26
-27 -34 -23 -11 -28 -20 -28 -47 0 -31 6 -38 60 -72 81 -51 108 -50 184 6 65
48 73 68 43 106 -14 16 -24 20 -38 14 -18 -8 -18 -8 1 -12 22 -5 45 -30 45
-49 0 -13 -48 -47 -67 -47 -7 0 -9 -5 -6 -10 4 -6 0 -8 -10 -4 -10 4 -16 2
-14 -5 1 -6 -11 -14 -27 -19 -23 -6 -40 -1 -95 29 -78 45 -90 72 -43 99 26 15
31 25 37 70 l6 53 49 0 c44 0 51 -3 64 -29 23 -44 64 -54 212 -55 78 -1 137
-5 145 -12 34 -27 42 -24 15 4 -17 18 -25 32 -19 32 7 0 15 9 18 20 3 11 15
20 26 20 10 0 19 5 19 11 0 5 -4 7 -10 4 -5 -3 -10 0 -10 7 1 7 16 22 34 34
l33 21 0 -21 c1 -47 4 -56 18 -56 8 0 21 -12 29 -27 14 -26 15 -26 16 -6 0 12
-10 29 -22 37 -16 11 -18 16 -7 16 8 0 25 -9 36 -19 27 -25 33 -18 33 40 0 75
-20 101 -50 64 -16 -19 -29 -19 -26 0 3 20 48 66 60 62 6 -2 19 -17 28 -34z
m-1192 -17 c0 -14 -4 -28 -10 -31 -5 -3 -10 -33 -10 -66 0 -56 1 -59 16 -44
22 21 26 15 15 -23 -6 -20 -6 -32 0 -32 5 0 9 7 9 16 0 8 4 13 9 10 4 -3 6
-17 3 -31 -2 -14 3 -36 12 -50 10 -14 21 -58 26 -98 4 -40 11 -80 16 -91 12
-31 -18 -14 -43 24 -25 35 -29 75 -14 128 5 17 6 32 1 32 -5 0 -10 6 -13 13
-2 6 -2 1 0 -13 5 -31 -6 -18 -44 55 -22 43 -25 58 -21 122 5 67 18 103 39
103 5 0 9 -11 9 -24z m253 17 c-7 -2 -19 -2 -25 0 -7 3 -2 5 12 5 14 0 19 -2
13 -5z m663 -14 c4 -8 8 -8 13 -1 10 17 54 -10 65 -39 12 -34 1 -75 -28 -104
-28 -28 -114 -40 -213 -30 -77 8 -114 22 -92 35 7 5 21 3 33 -6 31 -21 45 -16
16 6 -38 29 -19 33 50 10 75 -25 94 -22 150 25 23 19 51 35 63 35 37 0 5 18
-62 35 -38 10 -78 14 -100 10 -66 -11 -131 -36 -144 -56 -15 -21 -27 -15 -27
12 0 10 13 25 30 34 42 22 51 18 11 -6 -18 -11 -31 -22 -29 -25 9 -8 88 42 81
51 -5 4 4 6 19 3 15 -3 25 -2 23 3 -6 9 25 16 87 18 26 0 50 -4 54 -10z m-426
-37 c0 -15 -2 -15 -10 -2 -13 20 -13 33 0 25 6 -3 10 -14 10 -23z m150 14 c0
-2 -7 -7 -16 -10 -8 -3 -12 -2 -9 4 6 10 25 14 25 6z m524 -18 c9 -35 7 -70
-4 -63 -5 3 -8 11 -6 18 1 7 1 9 -1 5 -8 -14 -23 -9 -23 7 0 8 7 15 16 15 9 0
12 5 8 12 -5 7 -15 2 -31 -18 -28 -36 -31 -23 -2 17 25 35 35 36 43 7z m-1155
-15 c0 -10 1 -27 3 -37 2 -10 -3 -21 -9 -23 -14 -5 -19 58 -6 70 10 10 12 9
12 -10z m906 -12 c3 -5 1 -12 -5 -16 -5 -3 -10 1 -10 9 0 18 6 21 15 7z m-175
-21 c0 -21 -15 -27 -25 -10 -7 12 2 30 16 30 5 0 9 -9 9 -20z m140 10 c0 -5
-2 -10 -4 -10 -3 0 -8 5 -11 10 -3 6 -1 10 4 10 6 0 11 -4 11 -10z m-625 -25
c0 -27 -3 -29 -24 -16 -12 8 -12 12 -2 25 19 22 26 20 26 -9z m165 4 c0 -5 -4
-9 -10 -9 -5 0 -10 7 -10 16 0 8 5 12 10 9 6 -3 10 -10 10 -16z m-632 -489
c17 -20 18 -21 64 -3 45 16 48 16 68 -2 11 -10 20 -23 20 -30 0 -18 31 -42 64
-51 30 -7 58 -55 49 -83 -4 -12 -3 -13 4 -3 8 10 14 9 32 -5 31 -25 37 -90 21
-206 -13 -94 -27 -134 -54 -156 -9 -8 -16 -25 -16 -40 0 -16 -3 -21 -8 -14 -4
7 -13 9 -20 4 -8 -5 -40 5 -80 25 -86 43 -132 44 -194 5 l-45 -29 0 26 c0 16
-12 36 -32 54 -17 15 -30 33 -29 40 2 7 -5 12 -14 10 -12 -2 -24 9 -35 32 -14
30 -15 43 -5 87 7 28 12 71 12 95 0 43 22 94 41 94 5 0 7 -34 6 -75 -2 -56 0
-75 10 -75 9 0 12 29 10 123 -2 121 -2 124 26 160 33 44 78 51 105 17z m1117
-320 c1 -74 8 -163 15 -198 7 -34 11 -65 8 -67 -3 -3 -38 36 -79 87 -52 66
-83 96 -105 102 l-31 9 61 46 c74 56 89 86 90 174 l1 67 19 -42 c14 -34 19
-72 21 -178z m-579 71 c6 -71 7 -75 55 -124 27 -28 49 -52 49 -53 0 0 -11 1
-24 3 -22 5 -29 -3 -66 -78 -23 -46 -45 -87 -49 -92 -4 -4 -6 43 -4 105 1 62
4 167 6 233 2 66 7 127 12 135 8 11 11 6 12 -20 2 -19 6 -68 9 -109z m502 39
c-3 -63 -6 -68 -42 -101 -22 -19 -41 -32 -44 -31 -3 2 -8 -1 -11 -6 -3 -5 -25
-19 -49 -31 -49 -25 -47 -21 -62 -116 -6 -38 -19 -81 -29 -94 l-19 -24 -15 30
c-9 17 -17 47 -19 67 -1 21 -6 40 -12 43 -5 3 -6 1 -2 -5 4 -7 3 -12 -2 -12
-5 0 -27 21 -48 48 -21 26 -47 53 -56 60 -10 7 -15 18 -12 24 4 6 2 8 -3 5
-23 -15 -37 25 -48 139 -2 28 -7 59 -11 70 -5 15 -3 14 11 -4 9 -13 18 -34 19
-48 0 -13 5 -24 9 -24 5 0 5 -5 1 -12 -4 -6 -3 -8 4 -4 5 3 12 0 15 -6 2 -7 8
-10 12 -6 4 4 2 14 -4 22 -16 19 -24 66 -11 66 5 0 10 -5 10 -11 0 -6 6 -9 14
-6 19 7 97 -23 90 -34 -3 -5 1 -6 9 -3 8 3 23 -3 33 -13 11 -10 18 -16 17 -14
-4 6 127 50 140 47 7 -2 8 -1 4 2 -10 5 12 32 27 32 6 0 18 9 26 20 21 30 33
24 26 -12 -5 -31 -5 -32 9 -14 8 11 16 29 16 40 1 19 2 20 6 2 3 -11 3 -49 1
-86z m89 -122 c-3 -7 -5 -2 -5 12 0 14 2 19 5 13 2 -7 2 -19 0 -25z m-1027
-223 c39 -20 60 -63 60 -121 0 -39 -5 -51 -34 -80 -20 -20 -44 -34 -57 -34
-20 1 -19 3 11 16 50 21 70 51 70 106 0 38 -6 54 -27 78 -71 79 -203 25 -203
-83 0 -37 41 -90 80 -104 31 -10 32 -12 10 -12 -76 -2 -128 114 -84 188 33 56
114 77 174 46z m-37 -35 c-3 -11 -9 -17 -14 -14 -5 3 -7 10 -4 15 4 5 1 9 -4
9 -7 0 -10 -20 -10 -47 2 -53 -8 -93 -23 -93 -25 0 5 -17 32 -18 17 0 28 4 24
9 -3 5 -10 7 -15 4 -13 -9 -11 6 5 37 8 14 17 45 21 68 l7 42 24 -24 c32 -31
38 -70 19 -108 -46 -89 -185 -57 -185 43 0 52 43 97 93 97 30 0 34 -3 30 -20z
m128 -18 c5 -78 4 -109 -4 -119 -18 -24 -24 -13 -14 26 9 31 7 48 -5 80 -16
40 -16 40 3 31 10 -6 19 -14 20 -18z m83 -8 c3 -8 2 -12 -4 -9 -6 3 -10 10
-10 16 0 14 7 11 14 -7z m-378 -31 c-11 -11 -19 6 -11 24 8 17 8 17 12 0 3
-10 2 -21 -1 -24z m346 -3 c0 -22 1 -45 2 -52 1 -6 -4 -13 -10 -15 -13 -4 -25
56 -17 86 9 35 23 24 25 -19z m-376 -15 c2 -14 1 -24 -4 -21 -5 3 -9 17 -9 31
0 32 6 27 13 -10z m37 -64 c-9 -12 -23 18 -16 35 6 17 8 17 13 -6 4 -14 5 -27
3 -29z m377 -33 c-24 -19 -41 -20 -47 -1 -2 6 10 17 27 24 16 8 31 18 31 24 1
5 4 1 6 -10 3 -12 -3 -26 -17 -37z m-363 -14 c-7 -7 -37 7 -37 17 0 6 9 5 21
-1 11 -7 19 -14 16 -16z m80 -35 c74 -13 102 -9 172 25 45 21 51 22 51 7 0
-12 -23 -24 -87 -45 -97 -32 -156 -31 -254 1 -40 14 -55 23 -57 39 l-3 22 57
-19 c31 -10 86 -24 121 -30z M645 1510 c3 -5 10 -10 16 -10 5 0 9 5 9 10 0 6
-7 10 -16 10 -8 0 -12 -4 -9 -10z M1488 1283 c5 -21 7 -23 10 -9 2 10 0 22 -6
28 -6 6 -7 0 -4 -19z M610 1275 c-10 -12 -10 -15 1 -15 10 0 10 -3 1 -12 -7
-7 -11 -21 -11 -32 1 -21 1 -21 6 -1 3 11 12 28 21 38 8 9 11 17 6 17 -5 0 -2
5 6 10 13 8 13 10 -1 10 -9 0 -22 -7 -29 -15z M1308 1238 c26 -29 28 -48 6
-89 -19 -37 -13 -49 8 -17 36 54 31 96 -15 119 l-22 12 23 -25z M1050 1235
c-7 -8 -16 -13 -20 -10 -5 3 -11 1 -14 -3 -3 -5 6 -8 19 -8 14 1 25 6 24 10 0
5 5 13 13 17 8 5 9 9 2 9 -6 0 -17 -7 -24 -15z M735 1184 c-16 -35 -16 -38 2
-62 11 -14 26 -28 34 -30 8 -3 5 5 -8 20 -27 29 -28 39 -8 78 9 17 11 30 6 30
-5 0 -16 -16 -26 -36z M1286 1178 c-10 -5 -73 -12 -139 -14 -137 -3 -212 -11
-275 -26 -31 -8 -46 -7 -57 2 -15 13 -45 7 -45 -8 0 -18 60 -21 135 -7 42 8
148 18 236 22 108 4 162 10 170 19 14 17 -2 25 -25 12z M968 1073 c-25 -6 -22
-18 9 -32 22 -10 25 -10 15 2 -10 11 -2 13 46 10 42 -3 53 -2 42 6 -12 8 -8
11 18 11 34 0 43 -14 16 -24 -9 -4 -14 -9 -10 -13 7 -7 46 25 46 39 0 8 -151
9 -182 1z M1425 1460 c3 -5 8 -10 11 -10 2 0 4 5 4 10 0 6 -5 10 -11 10 -5 0
-7 -4 -4 -10z M156 947 c-5 -9 -5 -39 0 -65 8 -43 8 -45 12 -14 2 17 2 47 0
65 -3 25 -6 28 -12 14z M226 924 c-4 -9 -4 -19 -1 -22 2 -3 7 3 11 12 4 9 4
19 1 22 -2 3 -7 -3 -11 -12z M310 900 c0 -16 2 -30 4 -30 2 0 6 14 8 30 3 17
1 30 -4 30 -4 0 -8 -13 -8 -30z M384 845 c-9 -37 0 -40 13 -5 6 17 7 30 2 30
-5 0 -11 -11 -15 -25z M496 735 c-3 -9 -6 -26 -5 -38 1 -16 4 -12 10 12 10 34
6 55 -5 26z M1215 760 c-3 -5 -2 -18 4 -27 7 -14 9 -12 8 10 -2 30 -3 31 -12
17z M1004 712 c5 -9 3 -13 -5 -11 -27 3 -37 -1 -43 -18 -4 -10 -4 -14 0 -10 4
4 16 -7 26 -24 21 -34 37 -34 19 -1 -16 30 -14 40 11 44 21 3 21 4 3 18 -13
10 -16 11 -11 2z M841 688 c-1 -21 15 -32 25 -17 4 7 3 9 -4 5 -6 -3 -13 2
-15 11 -4 16 -5 16 -6 1z M1095 660 c-16 -18 -16 -20 -2 -20 9 0 21 9 27 20 6
11 7 20 2 20 -5 0 -17 -9 -27 -20z M855 641 c-3 -5 -2 -12 3 -15 5 -3 9 1 9 9
0 17 -3 19 -12 6z M942 535 c6 -13 15 -22 19 -19 5 2 1 14 -9 24 -22 26 -24
25 -10 -5z M1046 455 c-3 -8 -1 -15 5 -15 6 0 7 -5 3 -12 -4 -6 -3 -8 4 -5 5
4 8 16 5 27 -6 24 -9 25 -17 5z M338 303 c6 -2 18 -2 25 0 6 3 1 5 -13 5 -14
0 -19 -2 -12 -5z M347 2348 c5 -7 31 -46 57 -85 68 -103 70 -97 9 30 -25 52
-38 67 -54 67 -15 0 -19 -4 -12 -12z M1000 2323 c0 -43 5 -41 13 5 4 18 2 32
-3 32 -6 0 -10 -16 -10 -37z M1471 2313 c-7 -27 -14 -57 -17 -68 -2 -11 9 9
26 44 35 74 34 71 16 71 -8 0 -18 -19 -25 -47z M1581 2253 c-57 -142 -56 -140
-44 -128 6 6 24 35 40 65 16 30 44 81 62 113 l33 57 -24 0 c-22 0 -29 -12 -67
-107z M1715 2250 c-30 -60 -53 -110 -51 -110 5 0 146 207 146 215 0 3 -9 5
-20 5 -15 0 -33 -25 -75 -110z M1931 2243 c-44 -65 -106 -154 -138 -198 -103
-141 -106 -152 -22 -65 87 88 89 89 23 5 l-39 -50 35 30 c19 17 104 101 188
188 111 116 152 165 152 183 0 23 -3 24 -60 24 l-60 0 -79 -117z M1 2173 c0
-35 6 -43 92 -115 51 -42 113 -96 140 -118 26 -23 47 -39 47 -36 0 6 -19 28
-160 186 -36 40 -69 79 -73 86 -4 8 -17 18 -27 24 -18 10 -20 7 -19 -27z M0
1872 c0 -27 9 -35 108 -92 117 -69 135 -78 111 -58 -9 7 -38 32 -65 55 -27 22
-73 60 -101 83 l-53 42 0 -30z M0 1742 c0 -29 6 -33 146 -101 80 -39 149 -71
152 -71 6 0 -155 109 -270 184 l-28 18 0 -30z M2068 1660 c-27 -17 -50 -30
-53 -30 -6 0 -145 -90 -145 -94 0 -4 113 38 202 75 51 21 58 27 58 52 0 34 -4
34 -62 -3z M0 1566 c0 -7 12 -18 28 -24 59 -23 174 -62 180 -61 8 0 -189 98
-200 98 -5 1 -8 -5 -8 -13z M2035 1468 c-49 -22 -148 -64 -220 -94 -131 -54
-145 -66 -45 -40 30 8 118 24 195 36 77 12 146 24 153 26 8 2 12 23 12 59 0
30 -1 55 -2 54 -2 0 -43 -18 -93 -41z M2 1412 c3 -25 9 -28 88 -44 47 -10 108
-23 136 -29 105 -23 72 -1 -75 48 l-152 52 3 -27z M0 1271 c0 -15 10 -20 48
-25 78 -10 314 -27 318 -23 4 3 -31 10 -266 53 -97 18 -100 17 -100 -5z M1805
1214 c-175 -15 -155 -12 -155 -24 0 -15 277 12 310 31 8 5 11 8 5 7 -5 0 -77
-6 -160 -14z M1970 1178 c-115 -16 -120 -22 -30 -29 47 -4 109 -7 138 -8 49
-1 52 0 52 24 0 23 -3 25 -47 24 -27 -1 -77 -6 -113 -11z M167 1143 c-20 -19
4 -24 116 -22 147 2 192 13 92 22 -91 9 -200 9 -208 0z M1790 1103 c0 -14 86
-23 205 -22 82 1 92 3 55 9 -84 15 -260 23 -260 13z M1870 1024 c8 -3 70 -17
138 -33 l122 -28 0 27 0 27 -97 6 c-104 7 -188 7 -163 1z M1920 871 c157 -51
206 -64 208 -53 2 7 2 16 -1 18 -6 6 -388 104 -402 103 -5 0 82 -31 195 -68z
M1546 851 c-6 -9 15 -25 86 -65 101 -56 181 -96 184 -93 6 5 -129 94 -203 134
-34 18 -64 29 -67 24z M1840 807 c0 -5 275 -147 284 -147 3 0 6 13 6 28 0 28
-4 30 -132 71 -73 24 -139 45 -145 48 -7 2 -13 3 -13 0z M1067 319 c-18 -25
-11 -53 10 -45 8 3 20 6 27 6 6 0 12 12 11 27 0 35 -28 42 -48 12z m36 -14
c-3 -8 -14 -15 -26 -15 -19 0 -19 1 -2 20 19 21 37 18 28 -5z M1030 91 c-5
-11 -7 -27 -4 -36 8 -19 44 -14 78 12 21 15 21 15 -1 8 -19 -5 -23 -2 -23 14
0 27 -35 28 -50 2z m40 -5 c0 -16 -18 -31 -27 -22 -8 8 5 36 17 36 5 0 10 -6
10 -14z"/>
</g>
</svg>
