<?xml version="1.0" standalone="no"?>
<!DOCTYPE svg PUBLIC "-//W3C//DTD SVG 20010904//EN"
 "http://www.w3.org/TR/2001/REC-SVG-20010904/DTD/svg10.dtd">
<svg version="1.0" xmlns="http://www.w3.org/2000/svg"
 width="820.000000pt" height="420.000000pt" viewBox="0 0 820.000000 420.000000"
 preserveAspectRatio="xMidYMid meet">
<metadata>
Created by potrace 1.16, written by Peter Selinger 2001-2019
</metadata>
<g transform="translate(0.000000,420.000000) scale(0.100000,-0.100000)"
fill="#000000" stroke="none">
<path d="M3194 3785 c-445 -37 -582 -110 -732 -389 -112 -206 -272 -521 -272
-533 0 -9 15 -13 43 -13 l42 0 49 83 c143 239 288 371 487 439 58 19 89 22
327 25 l262 3 0 -24 c0 -14 -5 -47 -10 -73 -12 -55 -42 -253 -70 -463 -110
-825 -230 -1242 -513 -1790 -156 -300 -150 -287 -155 -373 -7 -118 24 -181
118 -243 39 -26 52 -29 129 -29 77 0 92 3 139 30 90 49 134 108 190 253 178
457 307 1264 382 2392 6 91 14 199 18 240 l7 75 508 3 507 2 0 -27 c0 -16 -9
-163 -20 -328 -99 -1485 -122 -1901 -112 -2010 37 -392 239 -625 542 -625 370
0 736 319 911 792 16 44 29 90 29 104 0 21 -4 24 -40 24 -42 0 -51 -9 -107
-111 -67 -122 -178 -266 -270 -349 -32 -29 -92 -69 -133 -89 -64 -30 -85 -35
-145 -35 -109 0 -181 42 -283 168 -30 37 -93 188 -116 278 -49 189 -55 360
-26 721 25 309 31 396 45 597 41 598 62 870 68 876 1 1 233 6 515 10 l512 7 0
198 0 199 -1337 -1 c-982 -1 -1378 -5 -1489 -14z"/>
</g>
</svg>
