<?xml version="1.0" standalone="no"?>
<!DOCTYPE svg PUBLIC "-//W3C//DTD SVG 20010904//EN"
 "http://www.w3.org/TR/2001/REC-SVG-20010904/DTD/svg10.dtd">
<svg version="1.0" xmlns="http://www.w3.org/2000/svg"
 width="860.000000pt" height="712.000000pt" viewBox="0 0 860.000000 712.000000"
 preserveAspectRatio="xMidYMid meet">
<metadata>
Created by potrace 1.16, written by Peter Selinger 2001-2019
</metadata>
<g transform="translate(0.000000,712.000000) scale(0.100000,-0.100000)"
fill="#000000" stroke="none">
<path d="M0 3560 m4586 3042 c86 -163 109 -231 95 -274 -6 -18 -45 -73 -87 -123 -172
-203 -218 -312 -233 -548 -7 -109 -8 -114 -9 -42 -2 108 13 203 47 302 36 106
73 165 173 283 44 52 87 109 96 127 14 30 14 36 -9 95 -13 35 -51 114 -84 176
-59 110 -61 112 -95 112 l-35 0 -142 -278 c-232 -456 -261 -539 -270 -782 -6
-173 6 -268 53 -425 33 -108 36 -148 12 -153 -9 -2 -88 37 -175 86 -291 164
-391 206 -555 232 -99 16 -367 8 -468 -15 -280 -62 -553 -200 -773 -392 -252
-220 -442 -552 -522 -913 -43 -195 -50 -272 -50 -565 1 -881 199 -1493 720
-2225 227 -317 399 -502 584 -625 180 -120 309 -165 472 -165 104 0 170 13
333 66 175 57 304 84 418 91 169 9 243 -7 449 -100 75 -34 363 -106 467 -116
315 -32 703 122 990 394 235 221 508 641 682 1046 289 674 435 1649 341 2277
-46 303 -137 582 -258 786 -67 112 -220 264 -333 331 -150 87 -349 136 -500
121 -38 -4 -78 -3 -93 3 -47 18 -49 44 -16 223 16 90 45 271 64 403 31 209 34
246 23 287 l-11 47 -77 -102 c-116 -154 -171 -201 -280 -238 -57 -19 -96 -23
-315 -29 -280 -9 -344 -21 -465 -87 -126 -68 -259 -186 -337 -300 -20 -29 -39
-51 -41 -48 -10 10 70 115 144 189 118 119 225 183 379 228 57 16 115 21 320
28 249 8 295 15 367 51 57 29 147 118 223 223 39 52 75 96 80 96 6 0 16 -24
23 -53 11 -46 8 -78 -23 -292 -19 -132 -48 -314 -64 -404 -22 -117 -28 -169
-21 -182 18 -32 47 -41 118 -33 39 3 109 1 162 -6 352 -46 619 -261 767 -617
133 -323 189 -592 200 -963 18 -614 -127 -1378 -368 -1942 -226 -528 -524
-951 -831 -1179 -251 -186 -594 -294 -850 -268 -104 10 -392 82 -467 116 -206
93 -280 109 -449 100 -114 -7 -243 -34 -418 -91 -163 -53 -229 -66 -333 -66
-225 0 -454 110 -686 332 -222 212 -544 662 -714 997 -275 542 -386 1028 -386
1696 0 293 7 370 50 565 83 372 269 701 522 923 172 150 371 264 588 336 177
59 252 72 428 78 295 10 431 -30 796 -236 114 -65 167 -89 174 -82 7 7 2 37
-16 98 -57 189 -61 217 -61 418 -1 165 2 201 22 272 33 123 120 320 260 595
l127 248 45 0 45 0 61 -118z"/>
</g>
</svg>
