<?xml version="1.0" standalone="no"?>
<!DOCTYPE svg PUBLIC "-//W3C//DTD SVG 20010904//EN"
 "http://www.w3.org/TR/2001/REC-SVG-20010904/DTD/svg10.dtd">
<svg version="1.0" xmlns="http://www.w3.org/2000/svg"
 width="860.000000pt" height="712.000000pt" viewBox="0 0 860.000000 712.000000"
 preserveAspectRatio="xMidYMid meet">
<metadata>
Created by potrace 1.16, written by Peter Selinger 2001-2019
</metadata>
<g transform="translate(0.000000,712.000000) scale(0.100000,-0.100000)"
fill="#000000" stroke="none">
<path d="M0 3560 l0 -3560 4300 0 4300 0 0 3560 0 3560 -4300 0 -4300 0 0
-3560z m4586 3042 c86 -163 109 -231 95 -274 -6 -18 -45 -73 -87 -123 -172
-203 -218 -312 -233 -548 -7 -109 -8 -114 -9 -42 -2 108 13 203 47 302 36 106
73 165 173 283 44 52 87 109 96 127 14 30 14 36 -9 95 -13 35 -51 114 -84 176
-59 110 -61 112 -95 112 l-35 0 -142 -278 c-232 -456 -261 -539 -270 -782 -6
-173 6 -268 53 -425 33 -108 36 -148 12 -153 -9 -2 -88 37 -175 86 -291 164
-391 206 -555 232 -99 16 -367 8 -468 -15 -280 -62 -553 -200 -773 -392 -252
-220 -442 -552 -522 -913 -43 -195 -50 -272 -50 -565 1 -881 199 -1493 720
-2225 227 -317 399 -502 584 -625 180 -120 309 -165 472 -165 104 0 170 13
333 66 175 57 304 84 418 91 169 9 243 -7 449 -100 75 -34 363 -106 467 -116
315 -32 703 122 990 394 235 221 508 641 682 1046 289 674 435 1649 341 2277
-46 303 -137 582 -258 786 -67 112 -220 264 -333 331 -150 87 -349 136 -500
121 -38 -4 -78 -3 -93 3 -47 18 -49 44 -16 223 16 90 45 271 64 403 31 209 34
246 23 287 l-11 47 -77 -102 c-116 -154 -171 -201 -280 -238 -57 -19 -96 -23
-315 -29 -280 -9 -344 -21 -465 -87 -126 -68 -259 -186 -337 -300 -20 -29 -39
-51 -41 -48 -10 10 70 115 144 189 118 119 225 183 379 228 57 16 115 21 320
28 249 8 295 15 367 51 57 29 147 118 223 223 39 52 75 96 80 96 6 0 16 -24
23 -53 11 -46 8 -78 -23 -292 -19 -132 -48 -314 -64 -404 -22 -117 -28 -169
-21 -182 18 -32 47 -41 118 -33 39 3 109 1 162 -6 352 -46 619 -261 767 -617
133 -323 189 -592 200 -963 18 -614 -127 -1378 -368 -1942 -226 -528 -524
-951 -831 -1179 -251 -186 -594 -294 -850 -268 -104 10 -392 82 -467 116 -206
93 -280 109 -449 100 -114 -7 -243 -34 -418 -91 -163 -53 -229 -66 -333 -66
-225 0 -454 110 -686 332 -222 212 -544 662 -714 997 -275 542 -386 1028 -386
1696 0 293 7 370 50 565 83 372 269 701 522 923 172 150 371 264 588 336 177
59 252 72 428 78 295 10 431 -30 796 -236 114 -65 167 -89 174 -82 7 7 2 37
-16 98 -57 189 -61 217 -61 418 -1 165 2 201 22 272 33 123 120 320 260 595
l127 248 45 0 45 0 61 -118z m-109 -154 c102 -106 101 -137 -14 -296 -68 -95
-146 -255 -167 -342 -41 -171 -33 -266 49 -580 29 -113 50 -209 45 -214 -17
-18 -96 -19 -129 -1 -81 41 -161 330 -161 580 0 268 65 484 241 798 34 59 66
107 73 107 6 0 35 -24 63 -52z m1345 -430 c-10 -281 -92 -545 -222 -713 -94
-121 -273 -271 -402 -336 -122 -61 -204 -82 -323 -83 -113 0 -239 25 -283 56
-27 18 -132 136 -132 148 0 16 99 69 167 90 300 93 491 185 676 327 97 75 219
195 208 206 -16 16 -49 -3 -143 -85 -158 -137 -306 -224 -508 -301 -158 -60
-264 -87 -346 -87 l-73 0 -12 43 c-16 60 -6 182 20 242 67 151 238 290 431
350 40 12 115 19 275 25 184 7 236 12 316 33 106 28 186 65 269 125 82 60 86
58 82 -40z m-2375 -713 c121 -31 283 -100 413 -176 336 -198 348 -202 515
-204 115 -1 124 -3 215 -39 130 -53 249 -72 357 -58 171 23 293 85 517 263
219 174 342 224 556 223 115 0 133 -3 224 -34 158 -54 287 -149 391 -291 178
-242 285 -555 336 -984 19 -157 17 -477 -4 -675 -65 -605 -187 -1072 -408
-1559 -280 -616 -553 -942 -957 -1141 -202 -100 -360 -140 -552 -140 -186 0
-294 26 -528 129 -155 68 -235 86 -397 86 -148 0 -133 3 -405 -75 -256 -74
-250 -72 -380 -73 -101 -1 -140 3 -205 22 -181 51 -337 155 -492 330 -570 640
-909 1347 -1007 2103 -105 801 57 1459 459 1864 165 167 313 252 607 349 192
63 308 94 398 105 95 12 242 1 347 -25z M4355 6390 c-137 -242 -199 -397 -230
-574 -39 -228 -4 -536 83 -714 35 -72 70 -96 128 -89 25 2 47 6 48 8 2 2 -20
96 -49 209 -30 113 -59 240 -66 284 -21 141 3 289 72 449 36 83 55 115 157
263 62 90 59 116 -21 200 l-63 67 -59 -103z M5760 6054 c-67 -51 -182 -103
-289 -131 -80 -21 -132 -26 -316 -33 -252 -9 -299 -19 -425 -94 -140 -83 -249
-203 -285 -314 -18 -53 -18 -193 -1 -220 14 -22 137 -14 242 17 270 78 478
190 674 361 77 68 128 97 155 86 28 -11 15 -33 -65 -109 -202 -193 -445 -331
-747 -422 -112 -34 -223 -89 -223 -110 0 -5 31 -42 68 -80 66 -68 71 -71 148
-90 120 -30 265 -26 368 9 216 74 470 284 590 489 63 107 108 230 132 354 16
87 34 324 24 322 -3 0 -25 -16 -50 -35z M3100 5320 c-147 -19 -517 -135 -655
-206 -258 -133 -453 -328 -604 -607 -202 -373 -272 -907 -195 -1495 97 -748
435 -1451 1007 -2093 152 -171 316 -283 482 -330 65 -19 104 -23 205 -22 130
1 124 -1 380 73 272 78 257 75 405 75 162 0 242 -18 397 -86 235 -103 341
-129 532 -129 257 0 505 90 771 278 172 123 360 338 505 579 86 142 245 460
299 598 218 547 345 1194 345 1745 -1 507 -106 917 -314 1228 -197 294 -485
429 -787 366 -143 -29 -215 -67 -393 -209 -140 -111 -189 -145 -266 -183 -85
-44 -176 -72 -268 -84 -108 -15 -227 5 -364 60 -98 40 -104 41 -189 35 -138
-8 -243 26 -439 145 -245 148 -370 205 -525 241 -101 24 -240 33 -329 21z"/>
</g>
</svg>
