<?xml version="1.0" standalone="no"?>
<!DOCTYPE svg PUBLIC "-//W3C//DTD SVG 20010904//EN"
 "http://www.w3.org/TR/2001/REC-SVG-20010904/DTD/svg10.dtd">
<svg version="1.0" xmlns="http://www.w3.org/2000/svg"
 width="564.000000pt" height="564.000000pt" viewBox="0 0 564.000000 564.000000"
 preserveAspectRatio="xMidYMid meet">
<metadata>
Created by potrace 1.16, written by Peter Selinger 2001-2019
</metadata>
<g transform="translate(0.000000,564.000000) scale(0.100000,-0.100000)"
fill="#000000" stroke="none">
<path d="M3850 3804 c-188 -37 -437 -188 -693 -422 -40 -36 -142 -132 -227
-213 -186 -176 -256 -237 -335 -294 -68 -49 -204 -129 -210 -124 -10 11 -56
191 -61 243 l-6 61 106 17 c115 19 210 55 248 95 l23 25 -71 67 c-39 37 -96
80 -127 96 -50 24 -64 27 -110 21 -28 -4 -82 -10 -119 -14 -56 -6 -103 -24
-87 -34 2 -2 17 -10 33 -18 50 -26 66 -57 73 -149 l6 -84 -214 6 c-212 6 -329
18 -546 57 -194 35 -298 24 -438 -46 -38 -19 -97 -54 -130 -79 -80 -60 -222
-201 -302 -300 -89 -110 -237 -333 -324 -490 -74 -132 -182 -355 -176 -361 2
-2 43 26 93 62 314 233 640 419 939 537 269 106 494 155 790 173 136 8 229 25
320 58 47 17 71 22 74 14 16 -46 90 -178 140 -248 183 -257 221 -326 247 -450
23 -114 44 -137 149 -164 124 -33 283 -12 325 42 33 41 22 83 -68 249 -170
312 -171 358 -12 526 147 155 488 415 645 492 163 79 171 80 740 77 488 -3
890 9 922 27 20 11 13 15 -197 106 -402 174 -848 338 -1089 401 -128 33 -271
49 -331 38z m289 -49 c256 -62 829 -275 1220 -453 l64 -29 -69 -8 c-38 -5
-352 -10 -699 -11 -611 -1 -632 -2 -710 -23 -144 -39 -217 -80 -450 -254 -175
-131 -262 -206 -355 -304 -89 -94 -119 -146 -120 -206 0 -62 46 -182 130 -337
91 -167 99 -190 76 -225 -51 -78 -347 -67 -407 15 -10 14 -26 59 -34 100 -20
94 -76 212 -151 315 -115 159 -162 231 -198 302 -36 73 -44 103 -26 103 19 0
177 99 253 160 43 34 148 128 233 208 423 401 562 510 771 609 167 79 268 87
472 38z m-1652 -420 c28 -14 80 -52 115 -84 53 -49 61 -61 50 -73 -22 -27
-126 -67 -216 -83 -133 -23 -126 -25 -126 48 0 84 -15 131 -50 161 -17 13 -30
27 -30 30 0 3 24 6 53 7 28 0 61 4 72 9 36 16 80 10 132 -15z m-937 -220 c205
-36 413 -56 588 -58 144 -2 153 -3 157 -22 2 -11 9 -49 15 -85 6 -36 20 -95
31 -133 11 -37 17 -71 14 -76 -7 -12 -146 -57 -215 -70 -30 -5 -109 -12 -175
-16 -536 -28 -1075 -244 -1664 -669 -50 -36 -91 -62 -91 -59 0 3 31 66 70 139
364 693 739 1070 1067 1073 34 1 126 -10 203 -24z"/>
</g>
</svg>
