<?xml version="1.0" standalone="no"?>
<!DOCTYPE svg PUBLIC "-//W3C//DTD SVG 20010904//EN"
 "http://www.w3.org/TR/2001/REC-SVG-20010904/DTD/svg10.dtd">
<svg version="1.0" xmlns="http://www.w3.org/2000/svg"
 width="820.000000pt" height="420.000000pt" viewBox="0 0 820.000000 420.000000"
 preserveAspectRatio="xMidYMid meet">
<metadata>
Created by potrace 1.16, written by Peter Selinger 2001-2019
</metadata>
<g transform="translate(0.000000,420.000000) scale(0.100000,-0.100000)"
fill="#000000" stroke="none">
<path d="M0 2100 l0 -2100 4100 0 4100 0 0 2100 0 2100 -4100 0 -4100 0 0
-2100z m6018 1693 c9 -23 9 -379 0 -388 -4 -4 -234 -10 -513 -15 -278 -4 -507
-9 -509 -11 -2 -2 -25 -294 -51 -649 -25 -355 -53 -730 -60 -835 -39 -509 -2
-760 145 -975 44 -64 77 -96 140 -136 40 -26 54 -29 130 -29 77 0 92 3 155 35
124 61 281 238 414 467 l42 73 50 0 51 0 -7 -33 c-10 -47 -73 -214 -105 -278
-48 -93 -150 -239 -224 -317 -213 -224 -487 -334 -716 -288 -105 22 -163 51
-239 122 -138 128 -211 334 -211 601 0 95 33 663 80 1363 5 85 19 297 30 470
11 173 22 339 24 368 l5 52 -505 0 -504 0 -4 -22 c-2 -13 -12 -138 -21 -278
-76 -1185 -233 -2114 -421 -2497 -61 -125 -165 -196 -288 -196 -83 0 -136 20
-188 72 -90 90 -100 226 -26 370 120 235 209 413 228 456 12 28 32 73 45 100
29 65 97 251 135 368 80 250 144 564 205 1002 37 267 82 564 91 601 6 21 3 22
-203 28 -226 8 -313 -1 -426 -44 -84 -32 -197 -111 -267 -188 -60 -65 -176
-229 -201 -284 -11 -26 -17 -28 -66 -28 -32 0 -53 4 -53 11 0 10 116 239 248
489 137 260 233 343 462 398 218 53 401 59 1878 60 1175 2 1243 1 1250 -15z"/>
<path d="M3356 3789 c-424 -19 -603 -64 -734 -183 -77 -71 -113 -129 -281
-452 l-150 -289 42 -3 c23 -2 43 1 45 6 10 31 125 202 177 264 131 156 273
237 470 268 60 10 485 5 485 -5 0 -2 -11 -70 -25 -151 -13 -82 -43 -282 -65
-444 -119 -852 -243 -1259 -578 -1892 -98 -185 -112 -270 -63 -366 84 -163
307 -182 439 -38 209 227 399 1235 487 2581 9 138 18 265 21 283 l5 32 512 -2
512 -3 -3 -60 c-2 -59 -32 -538 -52 -830 -88 -1318 -93 -1480 -51 -1639 47
-177 161 -335 290 -400 241 -123 570 -24 827 247 128 134 250 341 310 525 13
40 24 75 24 77 0 3 -18 5 -40 5 -38 0 -40 -2 -81 -73 -127 -218 -292 -408
-399 -459 -89 -42 -128 -51 -199 -46 -162 12 -282 139 -363 383 -59 179 -71
401 -43 770 7 105 35 483 61 840 25 358 48 652 50 654 2 2 231 7 509 11 278 4
509 11 512 14 8 8 13 299 6 349 l-5 37 -1242 -2 c-682 0 -1317 -5 -1410 -9z"/>
</g>
</svg>
