<?xml version="1.0" standalone="no"?>
<!DOCTYPE svg PUBLIC "-//W3C//DTD SVG 20010904//EN"
 "http://www.w3.org/TR/2001/REC-SVG-20010904/DTD/svg10.dtd">
<svg version="1.0" xmlns="http://www.w3.org/2000/svg"
 width="820.000000pt" height="420.000000pt" viewBox="0 0 820.000000 420.000000"
 preserveAspectRatio="xMidYMid meet">
<g transform="translate(0.000000,420.000000) scale(0.100000,-0.100000)"
fill="#000000" stroke="none">
<path d="M3356 3789 c-424 -19 -603 -64 -734 -183 -77 -71 -113 -129 -281
-452 l-150 -289 42 -3 c23 -2 43 1 45 6 10 31 125 202 177 264 131 156 273
237 470 268 60 10 485 5 485 -5 0 -2 -11 -70 -25 -151 -13 -82 -43 -282 -65
-444 -119 -852 -243 -1259 -578 -1892 -98 -185 -112 -270 -63 -366 84 -163
307 -182 439 -38 209 227 399 1235 487 2581 9 138 18 265 21 283 l5 32 512 -2
512 -3 -3 -60 c-2 -59 -32 -538 -52 -830 -88 -1318 -93 -1480 -51 -1639 47
-177 161 -335 290 -400 241 -123 570 -24 827 247 128 134 250 341 310 525 13
40 24 75 24 77 0 3 -18 5 -40 5 -38 0 -40 -2 -81 -73 -127 -218 -292 -408
-399 -459 -89 -42 -128 -51 -199 -46 -162 12 -282 139 -363 383 -59 179 -71
401 -43 770 7 105 35 483 61 840 25 358 48 652 50 654 2 2 231 7 509 11 278 4
509 11 512 14 8 8 13 299 6 349 l-5 37 -1242 -2 c-682 0 -1317 -5 -1410 -9z"/>
</g>
</svg>
