<?xml version="1.0" standalone="no"?>
<!DOCTYPE svg PUBLIC "-//W3C//DTD SVG 20010904//EN"
 "http://www.w3.org/TR/2001/REC-SVG-20010904/DTD/svg10.dtd">
<svg version="1.0" xmlns="http://www.w3.org/2000/svg"
 width="808.000000pt" height="746.000000pt" viewBox="0 0 808.000000 746.000000"
 preserveAspectRatio="xMidYMid meet">
<metadata>
Created by potrace 1.16, written by Peter Selinger 2001-2019
</metadata>
<g transform="translate(0.000000,746.000000) scale(0.100000,-0.100000)"
fill="#000000" stroke="none">
<path d="M1379 7128 c-23 -19 -51 -68 -39 -68 6 0 10 -26 10 -60 0 -47 3 -60
15 -60 12 0 15 13 15 60 0 47 3 60 15 60 8 0 15 5 15 10 0 6 -7 10 -15 10 -25
0 -17 20 12 31 22 8 24 12 13 19 -20 13 -23 12 -41 -2z M5449 7133 c-16 -4
-52 -73 -38 -73 5 0 9 -27 9 -60 0 -47 3 -60 15 -60 12 0 15 13 15 60 0 47 3
60 15 60 8 0 15 5 15 10 0 6 -7 10 -15 10 -8 0 -15 7 -15 15 0 9 9 15 21 15
11 0 19 5 17 12 -5 14 -17 17 -39 11z M5539 7128 c-23 -19 -51 -68 -39 -68 6
0 10 -26 10 -60 0 -47 3 -60 15 -60 12 0 15 13 15 60 0 47 3 60 15 60 8 0 15
5 15 10 0 6 -7 10 -15 10 -25 0 -17 20 12 31 22 8 24 12 13 19 -20 13 -23 12
-41 -2z M289 7116 c-26 -8 -37 -19 -46 -48 -15 -45 -1 -103 28 -118 26 -14 81
-9 87 9 3 9 -2 11 -17 6 -50 -16 -94 50 -69 103 11 22 20 27 53 28 21 0 40 5
42 11 6 16 -40 21 -78 9z M400 7035 c0 -78 3 -95 15 -95 12 0 15 17 15 95 0
78 -3 95 -15 95 -12 0 -15 -17 -15 -95z M640 7035 c0 -57 4 -95 10 -95 6 0 10
5 10 12 0 9 3 9 12 0 19 -19 55 -14 72 10 39 55 5 126 -54 115 -28 -6 -30 -5
-30 23 0 17 -4 30 -10 30 -6 0 -10 -38 -10 -95z m78 13 c16 -16 15 -63 -2 -77
-32 -26 -63 19 -46 65 10 26 29 31 48 12z M2590 7101 c0 -28 -2 -29 -34 -24
-27 4 -36 1 -50 -18 -20 -30 -21 -68 0 -97 17 -24 53 -29 72 -10 9 9 12 9 12
0 0 -7 5 -12 10 -12 6 0 10 38 10 95 0 57 -4 95 -10 95 -5 0 -10 -13 -10 -29z
m-11 -55 c17 -20 10 -67 -11 -79 -23 -15 -48 8 -48 42 0 45 35 66 59 37z
M3770 7035 c0 -57 4 -95 10 -95 6 0 10 15 10 33 0 50 10 76 32 83 27 8 38 -10
38 -68 0 -36 4 -48 15 -48 18 0 21 73 5 116 -10 24 -14 26 -50 21 -39 -5 -40
-4 -40 24 0 16 -4 29 -10 29 -6 0 -10 -38 -10 -95z M4570 7114 c0 -9 5 -14 12
-12 18 6 21 28 4 28 -9 0 -16 -7 -16 -16z M5263 7123 c-33 -6 -53 -41 -53 -91
0 -79 73 -119 134 -71 22 17 26 28 26 69 0 71 -39 105 -107 93z m65 -35 c25
-31 17 -94 -13 -114 -23 -15 -27 -15 -50 0 -19 12 -25 25 -25 52 0 51 15 74
49 74 16 0 33 -6 39 -12z M6092 7122 c-27 -4 -45 -35 -37 -63 4 -11 22 -27 41
-36 56 -27 41 -67 -20 -56 -22 4 -27 2 -24 -8 6 -18 61 -24 88 -9 13 7 20 21
20 40 0 24 -8 34 -40 52 -49 28 -49 53 0 54 18 0 35 5 37 11 4 12 -31 20 -65
15z M6410 7115 c0 -9 5 -15 11 -13 6 2 11 8 11 13 0 5 -5 11 -11 13 -6 2 -11
-4 -11 -13z M7240 7115 c0 -9 5 -15 11 -13 6 2 11 8 11 13 0 5 -5 11 -11 13
-6 2 -11 -4 -11 -13z M7450 7035 c0 -78 3 -95 15 -95 11 0 15 12 15 49 0 51
18 78 45 67 11 -4 15 -21 15 -61 0 -42 3 -55 15 -55 12 0 15 13 15 59 0 68
-14 87 -60 77 -28 -5 -30 -3 -30 24 0 20 -5 30 -15 30 -12 0 -15 -17 -15 -95z
M1060 7030 l0 -90 50 0 c38 0 50 4 50 15 0 11 -11 15 -40 15 l-40 0 0 75 c0
43 -4 75 -10 75 -6 0 -10 -37 -10 -90z M2000 7030 c0 -73 3 -90 15 -90 11 0
15 12 15 45 l0 45 40 0 40 0 0 -45 c0 -33 4 -45 15 -45 12 0 15 17 15 90 0 73
-3 90 -15 90 -10 0 -15 -11 -15 -35 0 -34 -1 -35 -40 -35 -39 0 -40 1 -40 35
0 24 -5 35 -15 35 -12 0 -15 -17 -15 -90z M3080 7030 l0 -90 50 0 c38 0 50 4
50 15 0 10 -11 15 -35 15 l-35 0 0 75 c0 60 -3 75 -15 75 -12 0 -15 -17 -15
-90z M4430 7030 l0 -90 55 0 c42 0 55 3 55 15 0 11 -11 15 -40 15 l-40 0 0 75
c0 60 -3 75 -15 75 -12 0 -15 -17 -15 -90z M6854 7033 c16 -62 27 -89 39 -91
15 -3 20 8 43 100 9 39 18 28 34 -38 13 -55 35 -79 49 -55 12 18 44 162 38
168 -13 12 -25 -10 -37 -67 -7 -33 -16 -58 -19 -54 -3 3 -13 31 -21 62 -22 82
-42 80 -65 -5 -20 -73 -20 -73 -45 25 -6 23 -17 42 -24 42 -11 0 -9 -18 8 -87z
M1437 7085 c-10 -14 -13 -25 -7 -25 5 0 10 -18 10 -41 0 -53 15 -79 45 -79 30
0 33 16 5 23 -16 4 -20 14 -20 51 0 39 3 46 20 46 11 0 20 5 20 10 0 6 -9 10
-20 10 -11 0 -20 7 -20 15 0 22 -12 18 -33 -10z M3667 7087 c-10 -15 -13 -27
-7 -27 5 0 10 -24 10 -55 0 -50 2 -55 24 -61 36 -9 53 6 24 20 -33 16 -39 85
-9 93 26 7 27 23 2 23 -11 0 -21 8 -23 17 -2 14 -7 12 -21 -10z M5880 7096 c0
-8 -6 -16 -12 -19 -10 -3 -10 -7 -1 -18 6 -8 13 -37 15 -64 3 -46 5 -50 31
-53 15 -2 27 1 27 7 0 6 -6 11 -14 11 -17 0 -26 22 -26 66 0 27 4 34 20 34 11
0 20 5 20 10 0 6 -9 10 -20 10 -11 0 -20 7 -20 15 0 8 -4 15 -10 15 -5 0 -10
-6 -10 -14z M7617 7087 c-10 -15 -13 -27 -7 -27 5 0 10 -24 10 -55 0 -50 2
-55 24 -61 36 -9 53 6 24 20 -33 16 -39 85 -9 93 26 7 27 23 2 23 -11 0 -21 8
-23 17 -2 14 -7 12 -21 -10z M470 7038 c0 -24 3 -53 6 -66 8 -27 49 -40 76
-23 11 7 18 7 18 1 0 -5 5 -10 10 -10 6 0 10 30 10 70 0 40 -4 70 -10 70 -5 0
-10 -11 -10 -24 0 -44 -12 -85 -27 -91 -27 -10 -43 15 -43 66 0 37 -4 49 -15
49 -11 0 -15 -11 -15 -42z M1205 7066 c-27 -20 -27 -92 0 -112 64 -47 137 36
89 104 -18 25 -60 29 -89 8z m63 -18 c17 -17 15 -63 -2 -77 -11 -9 -20 -10
-35 -1 -35 18 -23 90 14 90 6 0 16 -5 23 -12z M2207 7073 c-14 -13 -6 -18 26
-18 45 0 44 -28 -2 -35 -41 -6 -61 -32 -45 -57 14 -22 50 -29 70 -13 10 9 14
9 14 1 0 -6 5 -11 10 -11 6 0 10 28 10 64 0 49 -4 65 -16 70 -21 8 -59 8 -67
-1z m63 -77 c0 -20 -27 -39 -45 -32 -18 7 -20 32 -2 39 24 10 47 7 47 -7z
M2340 7008 c0 -39 4 -68 10 -68 6 0 10 15 10 34 0 50 16 86 39 86 23 0 31 -19
31 -76 0 -32 4 -44 15 -44 18 0 21 73 5 114 -9 24 -14 26 -60 24 l-50 -2 0
-68z M3227 7062 c-26 -29 -22 -88 7 -107 28 -19 77 -16 84 4 3 9 -2 11 -17 6
-30 -9 -61 3 -61 26 0 16 7 19 46 19 42 0 45 1 38 23 -3 12 -11 28 -16 35 -15
18 -63 15 -81 -6z m63 -6 c0 -2 3 -11 6 -20 5 -13 -1 -16 -25 -16 -29 0 -41
16 -24 33 7 8 43 10 43 3z M3360 7008 c0 -54 3 -68 15 -68 11 0 15 12 15 49 0
51 18 78 45 67 11 -4 15 -21 15 -61 0 -42 3 -55 15 -55 20 0 22 112 2 128 -7
6 -34 10 -60 9 l-47 -2 0 -67z M3532 7068 c-15 -15 -16 -55 -1 -64 7 -4 7 -10
1 -16 -6 -6 -8 -16 -6 -23 3 -7 1 -16 -5 -20 -18 -10 -13 -43 8 -55 49 -26
120 6 107 48 -5 16 -18 24 -47 28 -42 7 -54 24 -16 24 29 0 47 18 47 47 0 13
5 23 10 23 6 0 10 5 10 10 0 14 -94 12 -108 -2z m61 -20 c7 -21 -4 -38 -23
-38 -10 0 -20 6 -23 13 -7 20 4 37 23 37 10 0 20 -6 23 -12z m17 -122 c0 -24
-62 -37 -75 -16 -11 18 5 30 41 30 22 0 34 -5 34 -14z M4570 7010 c0 -56 3
-70 15 -70 12 0 15 14 15 70 0 56 -3 70 -15 70 -12 0 -15 -14 -15 -70z M4655
7060 c-26 -29 -24 -79 5 -102 26 -21 81 -21 88 -1 2 9 -5 11 -26 7 -20 -4 -34
-1 -45 11 -24 23 -12 35 34 35 35 0 39 3 39 25 0 44 -63 60 -95 25z m64 -13
c13 -17 5 -27 -24 -27 -12 0 -25 3 -28 7 -9 8 12 33 28 33 7 0 18 -6 24 -13z
M5602 7068 c-20 -20 -14 -38 23 -60 42 -24 40 -44 -4 -41 -43 2 -35 -21 8 -25
63 -6 82 47 27 78 -42 23 -46 43 -7 39 17 -2 32 1 33 6 4 15 -65 18 -80 3z
M5737 7062 c-26 -29 -22 -88 7 -107 28 -19 77 -16 84 4 3 9 -2 11 -17 6 -30
-9 -61 3 -61 26 0 16 7 19 46 19 42 0 45 1 38 23 -3 12 -11 28 -16 35 -15 18
-63 15 -81 -6z m63 -6 c0 -2 3 -11 6 -20 5 -13 -1 -16 -25 -16 -29 0 -41 16
-24 33 7 8 43 10 43 3z M6186 7054 c32 -127 54 -146 75 -65 12 47 29 69 29 39
0 -33 22 -88 35 -88 9 0 21 22 31 58 9 31 19 63 21 70 3 6 -1 12 -9 12 -10 0
-21 -20 -30 -52 l-14 -53 -14 53 c-10 37 -19 52 -31 52 -12 0 -21 -15 -30 -52
l-13 -53 -14 53 c-9 30 -21 52 -29 52 -9 0 -12 -7 -7 -26z M6410 7010 c0 -40
4 -70 10 -70 6 0 10 30 10 70 0 40 -4 70 -10 70 -6 0 -10 -30 -10 -70z M6480
7008 c0 -39 4 -68 10 -68 6 0 10 15 10 34 0 50 16 86 39 86 23 0 31 -19 31
-76 0 -32 4 -44 15 -44 18 0 21 73 5 114 -9 24 -14 26 -60 24 l-50 -2 0 -68z
M6639 7059 c-7 -15 -8 -28 -1 -43 7 -16 5 -35 -5 -66 -14 -41 -14 -45 3 -57
39 -28 114 -8 114 31 0 28 -25 46 -65 46 -15 0 -24 4 -20 10 3 6 15 10 25 10
26 0 53 29 47 51 -3 11 -1 19 4 19 5 0 9 5 9 10 0 6 -22 10 -50 10 -40 0 -51
-4 -61 -21z m69 -22 c4 -20 -25 -34 -40 -19 -15 15 -1 44 19 40 10 -2 19 -11
21 -21z m16 -106 c9 -14 -21 -33 -46 -29 -12 2 -24 11 -26 21 -3 13 4 17 32
17 19 0 37 -4 40 -9z M7101 7066 c-7 -8 -14 -30 -18 -49 -4 -29 -1 -37 23 -56
28 -22 74 -25 81 -5 2 6 -7 9 -25 6 -30 -4 -59 19 -47 38 3 5 24 10 46 10 31
0 39 4 39 18 0 42 -73 70 -99 38z m67 -29 c3 -12 -3 -17 -21 -17 -31 0 -40 10
-25 27 15 18 42 12 46 -10z M7240 7010 c0 -40 4 -70 10 -70 6 0 10 30 10 70 0
40 -4 70 -10 70 -6 0 -10 -30 -10 -70z M7309 7059 c-7 -15 -8 -28 -1 -43 7
-16 5 -35 -5 -66 -14 -41 -14 -45 3 -57 39 -28 114 -8 114 31 0 28 -25 46 -65
46 -15 0 -24 4 -20 10 3 6 15 10 25 10 26 0 53 29 47 51 -3 11 -1 19 4 19 5 0
9 5 9 10 0 6 -22 10 -50 10 -40 0 -51 -4 -61 -21z m69 -22 c4 -20 -25 -34 -40
-19 -15 15 -1 44 19 40 10 -2 19 -11 21 -21z m16 -106 c9 -14 -21 -33 -46 -29
-12 2 -24 11 -26 21 -3 13 4 17 32 17 19 0 37 -4 40 -9z M1012 6521 c-13 -3
-23 -9 -23 -13 1 -9 8 -8 30 0 18 7 45 -11 49 -31 2 -9 -17 -38 -42 -65 -25
-27 -46 -54 -46 -61 0 -7 22 -11 60 -11 33 0 60 4 60 10 0 6 -21 10 -46 10
l-46 0 35 39 c41 46 52 73 38 99 -12 23 -37 31 -69 23z M1170 6522 c-28 -8
-40 -35 -40 -87 0 -59 21 -95 54 -95 38 0 56 30 56 91 0 70 -27 105 -70 91z
m49 -46 c20 -43 4 -110 -28 -114 -31 -5 -41 12 -41 74 0 76 40 100 69 40z
M1507 6519 c-32 -18 -14 -69 25 -69 19 0 38 28 31 48 -8 20 -37 31 -56 21z
m43 -28 c0 -24 -25 -34 -40 -16 -15 18 -5 35 21 35 12 0 19 -7 19 -19z M3085
6522 c-38 -8 -36 -19 2 -18 32 1 38 -2 41 -22 3 -17 -4 -26 -30 -37 -24 -11
-28 -14 -12 -15 34 0 57 -23 49 -49 -6 -20 -12 -22 -51 -19 -44 3 -58 -5 -28
-16 55 -21 112 12 100 59 -4 14 -11 25 -17 25 -8 0 -8 4 0 14 32 38 -4 89 -54
78z M3222 6519 c-24 -9 -30 -47 -10 -67 9 -9 8 -16 -5 -30 -50 -55 30 -115 83
-62 25 25 25 35 1 59 -17 17 -18 21 -5 32 8 6 14 22 14 34 0 28 -43 47 -78 34z
m53 -39 c0 -31 -33 -40 -52 -14 -16 22 1 46 31 42 15 -2 21 -10 21 -28z m13
-94 c4 -20 -36 -37 -60 -24 -10 5 -18 17 -18 28 0 28 30 42 55 26 11 -7 21
-21 23 -30z M3438 6516 c-29 -14 -35 -42 -13 -66 13 -14 13 -18 2 -23 -24 -9
-27 -47 -6 -68 51 -51 132 8 83 62 -14 16 -15 20 0 40 28 41 -17 79 -66 55z
m52 -21 c10 -12 10 -18 0 -30 -7 -8 -18 -15 -25 -15 -19 0 -38 28 -31 45 7 19
40 19 56 0z m-9 -75 c39 -21 12 -74 -32 -63 -26 7 -32 33 -13 54 20 22 20 22
45 9z M4280 6521 c-54 -14 -74 -117 -33 -163 32 -35 93 -8 93 41 0 38 -22 55
-64 48 -30 -5 -34 -3 -29 11 11 31 36 52 60 52 14 0 21 4 18 10 -7 11 -9 11
-45 1z m30 -95 c6 -8 10 -25 8 -38 -4 -32 -52 -38 -68 -9 -22 43 29 83 60 47z
M4410 6522 c-28 -8 -40 -35 -40 -87 0 -59 21 -95 54 -95 38 0 56 30 56 91 0
70 -27 105 -70 91z m49 -46 c20 -43 4 -110 -28 -114 -31 -5 -41 12 -41 74 0
76 40 100 69 40z M4770 6522 c-28 -8 -40 -35 -40 -87 0 -59 21 -95 54 -95 38
0 56 30 56 91 0 70 -27 105 -70 91z m49 -46 c20 -43 4 -110 -28 -114 -31 -5
-41 12 -41 74 0 76 40 100 69 40z M4895 6517 c-10 -8 -16 -23 -13 -38 2 -19 9
-24 33 -24 25 0 31 4 33 27 4 34 -26 54 -53 35z m43 -28 c4 -19 -19 -31 -38
-19 -18 11 -4 42 17 38 10 -2 19 -10 21 -19z M5297 6523 c-23 -6 -37 -43 -37
-96 0 -68 34 -100 84 -81 21 8 38 76 30 119 -5 30 -37 68 -54 64 -3 -1 -13 -3
-23 -6z m42 -22 c18 -11 26 -93 12 -120 -13 -23 -40 -28 -59 -9 -15 15 -16 92
-2 119 11 20 27 24 49 10z M5503 6519 c-13 -5 -23 -13 -23 -18 0 -7 9 -7 24 1
14 6 32 8 40 5 28 -11 17 -51 -29 -104 -25 -28 -45 -54 -45 -57 0 -3 27 -6 60
-6 33 0 60 4 60 10 0 6 -21 10 -46 10 l-47 0 42 45 c54 59 54 98 1 117 -8 3
-25 2 -37 -3z M5685 6522 c-31 -6 -54 -32 -61 -68 -8 -45 4 -92 28 -105 49
-26 98 23 78 77 -9 23 -15 26 -50 22 -23 -2 -40 1 -40 7 1 20 28 46 56 54 31
8 21 20 -11 13z m25 -97 c7 -8 10 -25 6 -40 -11 -41 -76 -29 -76 15 0 36 47
53 70 25z M5799 6517 c-40 -20 -47 -118 -11 -159 21 -25 58 -22 76 4 19 27 21
118 4 140 -19 23 -42 28 -69 15z m49 -19 c12 -12 16 -95 6 -122 -3 -9 -17 -16
-30 -16 -41 0 -60 83 -28 128 17 25 34 28 52 10z M6405 6523 c-11 -3 -24 -10
-30 -15 -7 -7 -1 -8 18 -4 66 16 97 -35 35 -56 l-33 -12 31 -8 c65 -16 49 -72
-18 -66 -41 4 -49 -14 -9 -20 39 -6 71 7 83 34 11 23 9 29 -10 44 -19 16 -20
20 -7 30 25 20 19 59 -11 70 -14 6 -26 9 -27 9 -1 -1 -11 -3 -22 -6z M357
6513 c-4 -3 -7 -15 -7 -25 0 -12 -8 -18 -22 -19 -17 -1 -19 -2 -5 -6 10 -3 17
-14 17 -29 0 -18 -6 -24 -22 -25 -19 -1 -20 -2 -5 -6 15 -4 18 -12 15 -34 -6
-39 8 -37 16 2 8 42 42 37 39 -6 l-2 -30 13 29 c8 17 22 33 32 37 17 7 17 8 2
8 -26 1 -23 40 5 51 18 7 19 9 3 9 -14 1 -17 7 -14 26 3 14 2 25 -3 25 -4 0
-9 -10 -11 -22 -2 -14 -11 -24 -24 -26 -18 -3 -21 1 -17 22 5 26 2 32 -10 19z
m37 -62 c10 -16 -5 -41 -25 -41 -22 0 -23 4 -9 31 11 20 25 25 34 10z M502
6457 l-43 -62 46 -3 c40 -3 45 -6 45 -28 0 -13 5 -24 10 -24 6 0 10 9 10 20 0
10 8 24 18 29 16 10 16 10 0 11 -15 0 -18 10 -18 60 0 41 -4 60 -12 60 -7 0
-32 -29 -56 -63z m48 -12 c0 -43 -1 -45 -30 -45 -16 0 -30 2 -30 5 0 7 52 85
56 85 2 0 4 -20 4 -45z M1350 6475 c0 -43 1 -45 24 -39 35 8 71 -28 55 -57 -9
-17 -18 -20 -50 -17 -24 2 -38 0 -36 -7 5 -15 46 -18 78 -5 23 10 29 19 29 44
0 39 -15 56 -52 56 -24 0 -28 4 -28 29 0 27 4 30 38 34 34 3 33 4 -10 5 l-48
2 0 -45z M1880 6430 c0 -53 4 -90 10 -90 6 0 10 18 10 41 0 36 2 40 23 37 13
-2 30 -17 42 -40 11 -21 26 -38 33 -38 10 0 7 11 -9 36 -21 34 -21 38 -5 64
16 28 13 58 -8 72 -6 4 -30 8 -53 8 l-43 0 0 -90z m84 64 c28 -27 13 -54 -30
-57 -23 -2 -30 2 -32 21 -7 50 28 70 62 36z M2040 6430 c0 -53 4 -90 10 -90 6
0 10 20 10 45 l0 45 50 0 50 0 0 -45 c0 -25 5 -45 10 -45 6 0 10 37 10 90 0
53 -4 90 -10 90 -5 0 -10 -16 -10 -35 l0 -35 -50 0 -50 0 0 35 c0 19 -4 35
-10 35 -6 0 -10 -37 -10 -90z M2331 6498 c-40 -107 -53 -149 -48 -155 4 -3 11
7 18 23 47 124 57 154 48 154 -5 0 -13 -10 -18 -22z M2462 6433 l-2 -93 50 0
c61 0 67 18 8 22 l-43 3 -6 80 -5 80 -2 -92z M2590 6430 c0 -53 4 -90 10 -90
6 0 10 20 10 45 l0 45 50 0 50 0 0 -45 c0 -25 5 -45 10 -45 6 0 10 37 10 90 0
53 -4 90 -10 90 -5 0 -10 -16 -10 -35 l0 -35 -50 0 -50 0 0 35 c0 19 -4 35
-10 35 -6 0 -10 -37 -10 -90z M3593 6513 c26 -2 47 -8 47 -13 0 -5 -15 -43
-34 -84 -19 -42 -30 -76 -25 -76 8 0 89 159 89 175 0 3 -28 4 -62 3 -57 -1
-58 -2 -15 -5z M3710 6474 c0 -41 2 -45 20 -39 32 10 62 -12 58 -43 -3 -25 -7
-27 -46 -27 -46 0 -53 -18 -8 -23 39 -5 76 22 76 56 0 37 -17 52 -58 52 -31 0
-34 2 -28 23 3 12 6 25 6 29 0 4 17 9 38 11 34 3 33 4 -10 5 l-48 2 0 -46z
M3850 6490 c0 -16 2 -30 4 -30 2 0 6 14 8 30 3 17 1 30 -4 30 -4 0 -8 -13 -8
-30z M3890 6496 c0 -14 5 -28 10 -31 6 -4 10 7 10 24 0 17 -4 31 -10 31 -5 0
-10 -11 -10 -24z M4590 6475 c0 -43 1 -45 24 -39 35 8 71 -28 55 -57 -9 -17
-18 -20 -50 -17 -24 2 -38 0 -36 -7 5 -15 46 -18 78 -5 23 10 29 19 29 44 0
39 -15 56 -52 56 -24 0 -28 4 -28 29 0 27 4 30 38 34 34 3 33 4 -10 5 l-48 2
0 -45z M6200 6430 l0 -90 29 0 c15 0 42 5 58 10 53 19 70 95 32 144 -17 22
-28 26 -70 26 l-49 0 0 -90z m102 53 c24 -22 23 -78 -2 -103 -11 -11 -33 -20
-50 -20 l-30 0 0 76 0 77 32 -7 c17 -3 40 -14 50 -23z M1280 6355 c0 -8 5 -15
10 -15 6 0 10 7 10 15 0 8 -4 15 -10 15 -5 0 -10 -7 -10 -15z M3347 6364 c-8
-8 1 -24 14 -24 5 0 9 7 9 15 0 15 -12 20 -23 9z M4520 6355 c0 -9 5 -15 11
-13 6 2 11 8 11 13 0 5 -5 11 -11 13 -6 2 -11 -4 -11 -13z M5410 6355 c0 -9 5
-15 11 -13 6 2 11 8 11 13 0 5 -5 11 -11 13 -6 2 -11 -4 -11 -13z M1012 5781
c-13 -3 -23 -9 -23 -13 1 -9 8 -8 30 0 18 7 45 -11 49 -31 2 -9 -17 -38 -42
-65 -25 -27 -46 -54 -46 -61 0 -7 22 -11 60 -11 33 0 60 4 60 10 0 6 -21 10
-46 10 l-46 0 35 39 c41 46 52 73 38 99 -12 23 -37 31 -69 23z M1165 5782
c-11 -2 -24 -8 -30 -14 -7 -6 2 -7 26 -3 27 5 39 2 49 -10 13 -15 11 -20 -9
-36 -13 -11 -31 -19 -40 -20 -9 0 0 -5 19 -12 27 -9 35 -17 35 -37 0 -22 -5
-25 -43 -28 -23 -2 -40 -7 -37 -13 9 -13 67 -10 88 5 21 16 23 64 2 72 -12 5
-12 9 1 29 26 40 -8 78 -61 67z M1298 5783 c-22 -5 -30 -30 -18 -54 19 -34 70
-18 70 23 0 20 -27 36 -52 31z m37 -23 c9 -15 -14 -40 -31 -33 -22 8 -18 43 5
43 11 0 23 -5 26 -10z M3085 5782 c-38 -8 -36 -19 2 -18 32 1 38 -2 41 -22 3
-17 -4 -26 -30 -37 -24 -11 -28 -14 -12 -15 34 0 57 -23 49 -49 -6 -20 -12
-22 -51 -19 -44 3 -58 -5 -28 -16 55 -21 112 12 100 59 -4 14 -11 25 -17 25
-8 0 -8 4 0 14 32 38 -4 89 -54 78z M3222 5779 c-24 -9 -30 -47 -10 -67 9 -9
8 -16 -5 -30 -50 -55 30 -115 83 -62 25 25 25 35 1 59 -17 17 -18 21 -5 32 8
6 14 22 14 34 0 28 -43 47 -78 34z m53 -39 c0 -31 -33 -40 -52 -14 -16 22 1
46 31 42 15 -2 21 -10 21 -28z m13 -94 c4 -20 -36 -37 -60 -24 -10 5 -18 17
-18 28 0 28 30 42 55 26 11 -7 21 -21 23 -30z M3432 5779 c-12 -5 -22 -13 -22
-18 0 -7 9 -7 24 1 69 31 75 -32 11 -101 -25 -26 -45 -51 -45 -55 0 -3 27 -6
60 -6 33 0 60 4 60 10 0 6 -21 10 -46 10 l-47 0 42 45 c34 37 42 52 39 77 -3
36 -36 51 -76 37z M4280 5781 c-54 -14 -74 -117 -33 -163 32 -35 93 -8 93 41
0 38 -22 55 -64 48 -30 -5 -34 -3 -29 11 11 31 36 52 60 52 14 0 21 4 18 10
-7 11 -9 11 -45 1z m30 -95 c6 -8 10 -25 8 -38 -4 -32 -52 -38 -68 -9 -22 43
29 83 60 47z M4612 5781 c-13 -3 -23 -9 -23 -13 1 -9 8 -8 30 0 18 7 45 -11
49 -31 2 -9 -17 -38 -42 -65 -25 -27 -46 -54 -46 -61 0 -7 22 -11 60 -11 33 0
60 4 60 10 0 6 -21 10 -46 10 l-46 0 35 39 c41 46 52 73 38 99 -12 23 -37 31
-69 23z M4895 5777 c-10 -8 -16 -23 -13 -38 2 -19 9 -24 33 -24 25 0 31 4 33
27 4 34 -26 54 -53 35z m43 -28 c4 -19 -19 -31 -38 -19 -18 11 -4 42 17 38 10
-2 19 -10 21 -19z M5297 5783 c-23 -6 -37 -43 -37 -96 0 -68 34 -100 84 -81
21 8 38 76 30 119 -5 30 -37 68 -54 64 -3 -1 -13 -3 -23 -6z m42 -22 c18 -11
26 -93 12 -120 -13 -23 -40 -28 -59 -9 -15 15 -16 92 -2 119 11 20 27 24 49
10z M5503 5779 c-13 -5 -23 -13 -23 -18 0 -7 9 -7 24 1 14 6 32 8 40 5 28 -11
17 -51 -29 -104 -25 -28 -45 -54 -45 -57 0 -3 27 -6 60 -6 33 0 60 4 60 10 0
6 -21 10 -46 10 l-47 0 42 45 c54 59 54 98 1 117 -8 3 -25 2 -37 -3z M5799
5777 c-40 -20 -47 -118 -11 -159 21 -25 58 -22 76 4 19 27 21 118 4 140 -19
23 -42 28 -69 15z m49 -19 c12 -12 16 -95 6 -122 -3 -9 -17 -16 -30 -16 -41 0
-60 83 -28 128 17 25 34 28 52 10z M6405 5783 c-11 -3 -24 -10 -30 -15 -7 -7
-1 -8 18 -4 66 16 97 -35 35 -56 l-33 -12 31 -8 c65 -16 49 -72 -18 -66 -41 4
-49 -14 -9 -20 39 -6 71 7 83 34 11 23 9 29 -10 44 -19 16 -20 20 -7 30 25 20
19 59 -11 70 -14 6 -26 9 -27 9 -1 -1 -11 -3 -22 -6z M357 5773 c-4 -3 -7 -15
-7 -25 0 -12 -8 -18 -22 -19 -17 -1 -19 -2 -5 -6 10 -3 17 -14 17 -29 0 -18
-6 -24 -22 -25 -19 -1 -20 -2 -5 -6 15 -4 18 -12 15 -34 -6 -39 8 -37 16 2 8
42 42 37 39 -6 l-2 -30 13 29 c8 17 22 33 32 37 17 7 17 8 2 8 -26 1 -23 40 5
51 18 7 19 9 3 9 -14 1 -17 7 -14 26 3 14 2 25 -3 25 -4 0 -9 -10 -11 -22 -2
-14 -11 -24 -24 -26 -18 -3 -21 1 -17 22 5 26 2 32 -10 19z m37 -62 c10 -16
-5 -41 -25 -41 -22 0 -23 4 -9 31 11 20 25 25 34 10z M486 5764 c-3 -9 -6 -29
-6 -45 0 -26 3 -29 20 -24 28 9 58 -3 65 -26 9 -29 -12 -49 -52 -49 -20 0 -32
-4 -28 -10 18 -29 105 6 105 43 0 28 -31 57 -61 57 -27 0 -30 3 -27 28 3 23 9
28 43 33 l40 6 -46 2 c-34 1 -48 -3 -53 -15z M1880 5690 c0 -53 4 -90 10 -90
6 0 10 18 10 41 0 36 2 40 23 37 13 -2 30 -17 42 -40 11 -21 26 -38 33 -38 10
0 7 11 -9 36 -21 34 -21 38 -5 64 16 28 13 58 -8 72 -6 4 -30 8 -53 8 l-43 0
0 -90z m84 64 c28 -27 13 -54 -30 -57 -23 -2 -30 2 -32 21 -7 50 28 70 62 36z
M2040 5690 c0 -53 4 -90 10 -90 6 0 10 20 10 45 l0 45 50 0 50 0 0 -45 c0 -25
5 -45 10 -45 6 0 10 37 10 90 0 53 -4 90 -10 90 -5 0 -10 -16 -10 -35 l0 -35
-50 0 -50 0 0 35 c0 19 -4 35 -10 35 -6 0 -10 -37 -10 -90z M2331 5758 c-40
-107 -53 -149 -48 -155 4 -3 11 7 18 23 47 124 57 154 48 154 -5 0 -13 -10
-18 -22z M2462 5693 l-2 -93 50 0 c61 0 67 18 8 22 l-43 3 -6 80 -5 80 -2 -92z
M2590 5690 c0 -53 4 -90 10 -90 6 0 10 20 10 45 l0 45 50 0 50 0 0 -45 c0 -25
5 -45 10 -45 6 0 10 37 10 90 0 53 -4 90 -10 90 -5 0 -10 -16 -10 -35 l0 -35
-50 0 -50 0 0 35 c0 19 -4 35 -10 35 -6 0 -10 -37 -10 -90z M3560 5735 c0 -43
1 -45 24 -39 35 8 71 -28 55 -57 -9 -17 -18 -20 -50 -17 -24 2 -38 0 -36 -7 5
-15 46 -18 78 -5 23 10 29 19 29 44 0 39 -15 56 -52 56 -24 0 -28 4 -28 29 0
27 4 30 38 34 34 3 33 4 -10 5 l-48 2 0 -45z M3700 5750 c0 -16 5 -30 10 -30
6 0 10 14 10 30 0 17 -4 30 -10 30 -5 0 -10 -13 -10 -30z M3750 5748 c0 -36 4
-35 14 5 4 16 2 27 -4 27 -5 0 -10 -14 -10 -32z M4395 5760 c-19 -21 -7 -28
13 -8 9 9 12 -6 12 -70 0 -48 4 -82 10 -82 6 0 10 37 10 90 0 96 -9 110 -45
70z M4740 5734 c0 -41 2 -45 20 -39 32 10 62 -12 58 -43 -3 -25 -7 -27 -46
-27 -46 0 -53 -18 -8 -23 39 -5 76 22 76 56 0 37 -17 52 -58 52 -31 0 -34 2
-28 23 3 12 6 25 6 29 0 4 17 9 38 11 34 3 33 4 -10 5 l-48 2 0 -46z M5630
5735 c0 -43 1 -45 24 -39 35 8 71 -28 55 -57 -9 -17 -18 -20 -50 -17 -24 2
-38 0 -36 -7 5 -15 46 -18 78 -5 23 10 29 19 29 44 0 39 -15 56 -52 56 -24 0
-28 4 -28 29 0 27 4 30 38 34 34 3 33 4 -10 5 l-48 2 0 -45z M6200 5690 l0
-90 29 0 c15 0 42 5 58 10 53 19 70 95 32 144 -17 22 -28 26 -70 26 l-49 0 0
-90z m102 53 c24 -22 23 -78 -2 -103 -11 -11 -33 -20 -50 -20 l-30 0 0 76 0
77 32 -7 c17 -3 40 -14 50 -23z M3347 5624 c-8 -8 1 -24 14 -24 5 0 9 7 9 15
0 15 -12 20 -23 9z M4520 5615 c0 -9 5 -15 11 -13 6 2 11 8 11 13 0 5 -5 11
-11 13 -6 2 -11 -4 -11 -13z M5410 5615 c0 -9 5 -15 11 -13 6 2 11 8 11 13 0
5 -5 11 -11 13 -6 2 -11 -4 -11 -13z M530 5041 c-54 -14 -74 -117 -33 -163 32
-35 93 -8 93 41 0 38 -22 55 -64 48 -30 -5 -34 -3 -29 11 11 31 36 52 60 52
14 0 21 4 18 10 -7 11 -9 11 -45 1z m30 -95 c6 -8 10 -25 8 -38 -4 -32 -52
-38 -68 -9 -22 43 29 83 60 47z M1012 5041 c-13 -3 -23 -9 -23 -13 1 -9 8 -8
30 0 18 7 45 -11 49 -31 2 -9 -17 -38 -42 -65 -25 -27 -46 -54 -46 -61 0 -7
22 -11 60 -11 33 0 60 4 60 10 0 6 -21 10 -46 10 l-46 0 35 39 c41 46 52 73
38 99 -12 23 -37 31 -69 23z M1184 5039 c-36 -10 -54 -43 -54 -99 0 -42 26
-80 56 -80 33 0 54 20 54 53 0 48 -12 60 -54 55 -22 -2 -36 0 -36 7 0 23 31
54 58 57 15 2 23 6 17 9 -5 3 -24 2 -41 -2z m36 -99 c22 -40 -26 -80 -58 -48
-25 25 -6 68 30 68 9 0 22 -9 28 -20z M1298 5043 c-22 -5 -30 -30 -18 -54 19
-34 70 -18 70 23 0 20 -27 36 -52 31z m37 -23 c9 -15 -14 -40 -31 -33 -22 8
-18 43 5 43 11 0 23 -5 26 -10z M3085 5042 c-38 -8 -36 -19 2 -18 32 1 38 -2
41 -22 3 -17 -4 -26 -30 -37 -24 -11 -28 -14 -12 -15 34 0 57 -23 49 -49 -6
-20 -12 -22 -51 -19 -44 3 -58 -5 -28 -16 55 -21 112 12 100 59 -4 14 -11 25
-17 25 -8 0 -8 4 0 14 32 38 -4 89 -54 78z M3463 5043 c-35 -7 -53 -41 -53
-99 0 -55 19 -84 57 -84 44 0 71 72 38 100 -8 7 -28 10 -45 8 -23 -4 -30 -1
-30 12 0 23 32 50 59 50 12 0 19 4 16 10 -3 6 -9 9 -13 9 -4 -1 -17 -4 -29 -6z
m32 -123 c0 -32 -2 -35 -30 -35 -26 0 -30 4 -33 29 -4 32 12 48 43 44 16 -2
20 -11 20 -38z M3582 5041 c-13 -3 -23 -9 -23 -13 1 -9 8 -8 30 0 18 7 45 -11
49 -31 2 -9 -17 -38 -42 -65 -25 -27 -46 -54 -46 -61 0 -7 22 -11 60 -11 33 0
60 4 60 10 0 6 -21 10 -46 10 l-46 0 35 39 c41 46 52 73 38 99 -12 23 -37 31
-69 23z M4280 5041 c-54 -14 -74 -117 -33 -163 32 -35 93 -8 93 41 0 38 -22
55 -64 48 -30 -5 -34 -3 -29 11 11 31 36 52 60 52 14 0 21 4 18 10 -7 11 -9
11 -45 1z m30 -95 c6 -8 10 -25 8 -38 -4 -32 -52 -38 -68 -9 -22 43 29 83 60
47z M4405 5042 c-11 -2 -24 -8 -30 -14 -7 -6 2 -7 26 -3 71 13 73 -39 5 -104
-51 -49 -47 -61 19 -61 30 0 55 5 55 10 0 6 -18 10 -40 10 -22 0 -40 4 -40 8
0 4 15 23 34 41 38 37 47 57 35 87 -8 23 -32 32 -64 26z M4617 5043 c-23 -6
-37 -43 -37 -96 0 -68 34 -100 84 -81 21 8 38 76 30 119 -5 30 -37 68 -54 64
-3 -1 -13 -3 -23 -6z m42 -22 c18 -11 26 -93 12 -120 -13 -23 -40 -28 -59 -9
-15 15 -16 92 -2 119 11 20 27 24 49 10z M4770 5042 c-28 -8 -40 -35 -40 -87
0 -59 21 -95 54 -95 38 0 56 30 56 91 0 70 -27 105 -70 91z m49 -46 c20 -43 4
-110 -28 -114 -31 -5 -41 12 -41 74 0 76 40 100 69 40z M4895 5037 c-10 -8
-16 -23 -13 -38 2 -19 9 -24 33 -24 25 0 31 4 33 27 4 34 -26 54 -53 35z m43
-28 c4 -19 -19 -31 -38 -19 -18 11 -4 42 17 38 10 -2 19 -10 21 -19z M5297
5043 c-23 -6 -37 -43 -37 -96 0 -68 34 -100 84 -81 21 8 38 76 30 119 -5 30
-37 68 -54 64 -3 -1 -13 -3 -23 -6z m42 -22 c18 -11 26 -93 12 -120 -13 -23
-40 -28 -59 -9 -15 15 -16 92 -2 119 11 20 27 24 49 10z M5503 5039 c-13 -5
-23 -13 -23 -18 0 -7 9 -7 24 1 14 6 32 8 40 5 28 -11 17 -51 -29 -104 -25
-28 -45 -54 -45 -57 0 -3 27 -6 60 -6 33 0 60 4 60 10 0 6 -21 10 -46 10 l-47
0 42 45 c54 59 54 98 1 117 -8 3 -25 2 -37 -3z M5799 5037 c-40 -20 -47 -118
-11 -159 21 -25 58 -22 76 4 19 27 21 118 4 140 -19 23 -42 28 -69 15z m49
-19 c12 -12 16 -95 6 -122 -3 -9 -17 -16 -30 -16 -41 0 -60 83 -28 128 17 25
34 28 52 10z M6405 5043 c-11 -3 -24 -10 -30 -15 -7 -7 -1 -8 18 -4 66 16 97
-35 35 -56 l-33 -12 31 -8 c65 -16 49 -72 -18 -66 -41 4 -49 -14 -9 -20 39 -6
71 7 83 34 11 23 9 29 -10 44 -19 16 -20 20 -7 30 25 20 19 59 -11 70 -14 6
-26 9 -27 9 -1 -1 -11 -3 -22 -6z M357 5033 c-4 -3 -7 -15 -7 -25 0 -12 -8
-18 -22 -19 -17 -1 -19 -2 -5 -6 10 -3 17 -14 17 -29 0 -18 -6 -24 -22 -25
-19 -1 -20 -2 -5 -6 15 -4 18 -12 15 -34 -6 -39 8 -37 16 2 8 42 42 37 39 -6
l-2 -30 13 29 c8 17 22 33 32 37 17 7 17 8 2 8 -26 1 -23 40 5 51 18 7 19 9 3
9 -14 1 -17 7 -14 26 3 14 2 25 -3 25 -4 0 -9 -10 -11 -22 -2 -14 -11 -24 -24
-26 -18 -3 -21 1 -17 22 5 26 2 32 -10 19z m37 -62 c10 -16 -5 -41 -25 -41
-22 0 -23 4 -9 31 11 20 25 25 34 10z M1880 4950 c0 -53 4 -90 10 -90 6 0 10
18 10 41 0 36 2 40 23 37 13 -2 30 -17 42 -40 11 -21 26 -38 33 -38 10 0 7 11
-9 36 -21 34 -21 38 -5 64 16 28 13 58 -8 72 -6 4 -30 8 -53 8 l-43 0 0 -90z
m84 64 c28 -27 13 -54 -30 -57 -23 -2 -30 2 -32 21 -7 50 28 70 62 36z M2040
4950 c0 -53 4 -90 10 -90 6 0 10 20 10 45 l0 45 50 0 50 0 0 -45 c0 -25 5 -45
10 -45 6 0 10 37 10 90 0 53 -4 90 -10 90 -5 0 -10 -16 -10 -35 l0 -35 -50 0
-50 0 0 35 c0 19 -4 35 -10 35 -6 0 -10 -37 -10 -90z M2331 5018 c-40 -107
-53 -149 -48 -155 4 -3 11 7 18 23 47 124 57 154 48 154 -5 0 -13 -10 -18 -22z
M2462 4953 l-2 -93 50 0 c61 0 67 18 8 22 l-43 3 -6 80 -5 80 -2 -92z M2590
4950 c0 -53 4 -90 10 -90 6 0 10 20 10 45 l0 45 50 0 50 0 0 -45 c0 -25 5 -45
10 -45 6 0 10 37 10 90 0 53 -4 90 -10 90 -5 0 -10 -16 -10 -35 l0 -35 -50 0
-50 0 0 35 c0 19 -4 35 -10 35 -6 0 -10 -37 -10 -90z M3233 5033 c26 -2 47 -8
47 -13 0 -5 -15 -43 -34 -84 -19 -42 -30 -76 -25 -76 8 0 89 159 89 175 0 3
-28 4 -62 3 -57 -1 -58 -2 -15 -5z M3710 4994 c0 -41 2 -45 20 -39 32 10 62
-12 58 -43 -3 -25 -7 -27 -46 -27 -46 0 -53 -18 -8 -23 39 -5 76 22 76 56 0
37 -17 52 -58 52 -31 0 -34 2 -28 23 3 12 6 25 6 29 0 4 17 9 38 11 34 3 33 4
-10 5 l-48 2 0 -46z M3850 5010 c0 -16 2 -30 4 -30 2 0 6 14 8 30 3 17 1 30
-4 30 -4 0 -8 -13 -8 -30z M3890 5016 c0 -14 5 -28 10 -31 6 -4 10 7 10 24 0
17 -4 31 -10 31 -5 0 -10 -11 -10 -24z M5652 4980 c-23 -32 -42 -61 -42 -64 0
-3 19 -6 43 -8 35 -2 43 -7 45 -25 4 -28 22 -31 22 -3 0 10 8 24 18 29 16 10
16 10 0 11 -15 0 -18 10 -18 60 0 78 -14 78 -68 0z m48 -15 c0 -43 -1 -45 -30
-45 -16 0 -30 3 -30 8 0 9 49 82 55 82 3 0 5 -20 5 -45z M6200 4950 l0 -90 29
0 c15 0 42 5 58 10 53 19 70 95 32 144 -17 22 -28 26 -70 26 l-49 0 0 -90z
m102 53 c24 -22 23 -78 -2 -103 -11 -11 -33 -20 -50 -20 l-30 0 0 76 0 77 32
-7 c17 -3 40 -14 50 -23z M3347 4884 c-8 -8 1 -24 14 -24 5 0 9 7 9 15 0 15
-12 20 -23 9z M4520 4875 c0 -9 5 -15 11 -13 6 2 11 8 11 13 0 5 -5 11 -11 13
-6 2 -11 -4 -11 -13z M5410 4875 c0 -9 5 -15 11 -13 6 2 11 8 11 13 0 5 -5 11
-11 13 -6 2 -11 -4 -11 -13z M1015 4302 c-11 -2 -24 -9 -30 -14 -7 -7 -1 -8
18 -4 66 16 97 -35 35 -56 l-33 -12 33 -8 c29 -8 33 -13 30 -36 -3 -24 -8 -27
-46 -30 -47 -4 -48 -22 -1 -22 46 0 69 17 69 50 0 16 -7 33 -16 38 -14 8 -14
10 0 21 40 33 -2 85 -59 73z M1170 4302 c-28 -8 -40 -35 -40 -87 0 -59 21 -95
54 -95 38 0 56 30 56 91 0 70 -27 105 -70 91z m49 -46 c20 -43 4 -110 -28
-114 -31 -5 -41 12 -41 74 0 76 40 100 69 40z M1298 4303 c-22 -5 -30 -30 -18
-54 19 -34 70 -18 70 23 0 20 -27 36 -52 31z m37 -23 c9 -15 -14 -40 -31 -33
-22 8 -18 43 5 43 11 0 23 -5 26 -10z M3085 4302 c-38 -8 -36 -19 2 -18 32 1
38 -2 41 -22 3 -17 -4 -26 -30 -37 -24 -11 -28 -14 -12 -15 34 0 57 -23 49
-49 -6 -20 -12 -22 -51 -19 -44 3 -58 -5 -28 -16 55 -21 112 12 100 59 -4 14
-11 25 -17 25 -8 0 -8 4 0 14 32 38 -4 89 -54 78z M3439 4297 c-40 -20 -47
-118 -11 -159 21 -25 58 -22 76 4 19 27 21 118 4 140 -19 23 -42 28 -69 15z
m49 -19 c12 -12 16 -95 6 -122 -3 -9 -17 -16 -30 -16 -41 0 -60 83 -28 128 17
25 34 28 52 10z M3587 4303 c-23 -6 -37 -43 -37 -96 0 -68 34 -100 84 -81 21
8 38 76 30 119 -5 30 -37 68 -54 64 -3 -1 -13 -3 -23 -6z m42 -22 c18 -11 26
-93 12 -120 -13 -23 -40 -28 -59 -9 -15 15 -16 92 -2 119 11 20 27 24 49 10z
M4280 4301 c-54 -14 -74 -117 -33 -163 32 -35 93 -8 93 41 0 38 -22 55 -64 48
-30 -5 -34 -3 -29 11 11 31 36 52 60 52 14 0 21 4 18 10 -7 11 -9 11 -45 1z
m30 -95 c6 -8 10 -25 8 -38 -4 -32 -52 -38 -68 -9 -22 43 29 83 60 47z M4405
4302 c-11 -2 -24 -8 -30 -14 -7 -6 2 -7 26 -3 71 13 73 -39 5 -104 -51 -49
-47 -61 19 -61 30 0 55 5 55 10 0 6 -18 10 -40 10 -22 0 -40 4 -40 8 0 4 15
23 34 41 38 37 47 57 35 87 -8 23 -32 32 -64 26z M4770 4302 c-28 -8 -40 -35
-40 -87 0 -59 21 -95 54 -95 38 0 56 30 56 91 0 70 -27 105 -70 91z m49 -46
c20 -43 4 -110 -28 -114 -31 -5 -41 12 -41 74 0 76 40 100 69 40z M4895 4297
c-10 -8 -16 -23 -13 -38 2 -19 9 -24 33 -24 25 0 31 4 33 27 4 34 -26 54 -53
35z m43 -28 c4 -19 -19 -31 -38 -19 -18 11 -4 42 17 38 10 -2 19 -10 21 -19z
M5297 4303 c-23 -6 -37 -43 -37 -96 0 -68 34 -100 84 -81 21 8 38 76 30 119
-5 30 -37 68 -54 64 -3 -1 -13 -3 -23 -6z m42 -22 c18 -11 26 -93 12 -120 -13
-23 -40 -28 -59 -9 -15 15 -16 92 -2 119 11 20 27 24 49 10z M5503 4299 c-13
-5 -23 -13 -23 -18 0 -7 9 -7 24 1 14 6 32 8 40 5 28 -11 17 -51 -29 -104 -25
-28 -45 -54 -45 -57 0 -3 27 -6 60 -6 33 0 60 4 60 10 0 6 -21 10 -46 10 l-47
0 42 45 c54 59 54 98 1 117 -8 3 -25 2 -37 -3z M5655 4302 c-11 -2 -24 -9 -30
-14 -7 -7 -1 -8 18 -4 66 16 97 -35 35 -56 l-33 -12 33 -8 c29 -8 33 -13 30
-36 -3 -24 -8 -27 -46 -30 -47 -4 -48 -22 -1 -22 46 0 69 17 69 50 0 16 -7 33
-16 38 -14 8 -14 10 0 21 40 33 -2 85 -59 73z M5799 4297 c-40 -20 -47 -118
-11 -159 21 -25 58 -22 76 4 19 27 21 118 4 140 -19 23 -42 28 -69 15z m49
-19 c12 -12 16 -95 6 -122 -3 -9 -17 -16 -30 -16 -41 0 -60 83 -28 128 17 25
34 28 52 10z M6405 4303 c-11 -3 -24 -10 -30 -15 -7 -7 -1 -8 18 -4 66 16 97
-35 35 -56 l-33 -12 31 -8 c65 -16 49 -72 -18 -66 -41 4 -49 -14 -9 -20 39 -6
71 7 83 34 11 23 9 29 -10 44 -19 16 -20 20 -7 30 25 20 19 59 -11 70 -14 6
-26 9 -27 9 -1 -1 -11 -3 -22 -6z M357 4293 c-4 -3 -7 -15 -7 -25 0 -12 -8
-18 -22 -19 -17 -1 -19 -2 -5 -6 10 -3 17 -14 17 -29 0 -18 -6 -24 -22 -25
-19 -1 -20 -2 -5 -6 15 -4 18 -12 15 -34 -6 -39 8 -37 16 2 8 42 42 37 39 -6
l-2 -30 13 29 c8 17 22 33 32 37 17 7 17 8 2 8 -26 1 -23 40 5 51 18 7 19 9 3
9 -14 1 -17 7 -14 26 3 14 2 25 -3 25 -4 0 -9 -10 -11 -22 -2 -14 -11 -24 -24
-26 -18 -3 -21 1 -17 22 5 26 2 32 -10 19z m37 -62 c10 -16 -5 -41 -25 -41
-22 0 -23 4 -9 31 11 20 25 25 34 10z M513 4293 c55 -5 58 -13 23 -81 -30 -60
-40 -92 -28 -92 7 0 82 158 82 174 0 3 -28 5 -62 4 -57 -1 -58 -2 -15 -5z
M1880 4210 c0 -53 4 -90 10 -90 6 0 10 18 10 41 0 36 2 40 23 37 13 -2 30 -17
42 -40 11 -21 26 -38 33 -38 10 0 7 11 -9 36 -21 34 -21 38 -5 64 16 28 13 58
-8 72 -6 4 -30 8 -53 8 l-43 0 0 -90z m84 64 c28 -27 13 -54 -30 -57 -23 -2
-30 2 -32 21 -7 50 28 70 62 36z M2040 4210 c0 -53 4 -90 10 -90 6 0 10 20 10
45 l0 45 50 0 50 0 0 -45 c0 -25 5 -45 10 -45 6 0 10 37 10 90 0 53 -4 90 -10
90 -5 0 -10 -16 -10 -35 l0 -35 -50 0 -50 0 0 35 c0 19 -4 35 -10 35 -6 0 -10
-37 -10 -90z M2331 4278 c-40 -107 -53 -149 -48 -155 4 -3 11 7 18 23 47 124
57 154 48 154 -5 0 -13 -10 -18 -22z M2462 4213 l-2 -93 50 0 c61 0 67 18 8
22 l-43 3 -6 80 -5 80 -2 -92z M2590 4210 c0 -53 4 -90 10 -90 6 0 10 20 10
45 l0 45 50 0 50 0 0 -45 c0 -25 5 -45 10 -45 6 0 10 37 10 90 0 53 -4 90 -10
90 -5 0 -10 -16 -10 -35 l0 -35 -50 0 -50 0 0 35 c0 19 -4 35 -10 35 -6 0 -10
-37 -10 -90z M3233 4293 c26 -2 47 -8 47 -13 0 -5 -15 -43 -34 -84 -19 -42
-30 -76 -25 -76 8 0 89 159 89 175 0 3 -28 4 -62 3 -57 -1 -58 -2 -15 -5z
M3700 4270 c0 -16 5 -30 10 -30 6 0 10 14 10 30 0 17 -4 30 -10 30 -5 0 -10
-13 -10 -30z M3750 4268 c0 -36 4 -35 14 5 4 16 2 27 -4 27 -5 0 -10 -14 -10
-32z M4590 4255 c0 -43 1 -45 24 -39 35 8 71 -28 55 -57 -9 -17 -18 -20 -50
-17 -24 2 -38 0 -36 -7 5 -15 46 -18 78 -5 23 10 29 19 29 44 0 39 -15 56 -52
56 -24 0 -28 4 -28 29 0 27 4 30 38 34 34 3 33 4 -10 5 l-48 2 0 -45z M6200
4210 l0 -90 29 0 c15 0 42 5 58 10 53 19 70 95 32 144 -17 22 -28 26 -70 26
l-49 0 0 -90z m102 53 c24 -22 23 -78 -2 -103 -11 -11 -33 -20 -50 -20 l-30 0
0 76 0 77 32 -7 c17 -3 40 -14 50 -23z M3347 4144 c-8 -8 1 -24 14 -24 5 0 9
7 9 15 0 15 -12 20 -23 9z M4520 4135 c0 -9 5 -15 11 -13 6 2 11 8 11 13 0 5
-5 11 -11 13 -6 2 -11 -4 -11 -13z M5410 4135 c0 -9 5 -15 11 -13 6 2 11 8 11
13 0 5 -5 11 -11 13 -6 2 -11 -4 -11 -13z M510 3560 c-28 -6 -39 -42 -21 -64
9 -10 7 -21 -6 -44 -17 -29 -17 -31 1 -51 24 -26 67 -27 89 -3 21 23 21 41 1
64 -13 14 -14 21 -5 32 31 37 -7 80 -59 66z m45 -40 c0 -18 -6 -26 -23 -28
-13 -2 -25 3 -28 12 -10 26 4 48 28 44 17 -2 23 -10 23 -28z m0 -70 c26 -28
13 -52 -27 -48 -38 3 -48 27 -23 52 21 21 28 20 50 -4z M1015 3562 c-11 -2
-24 -9 -30 -14 -7 -7 -1 -8 18 -4 66 16 97 -35 35 -56 l-33 -12 33 -8 c29 -8
33 -13 30 -36 -3 -24 -8 -27 -46 -30 -47 -4 -48 -22 -1 -22 46 0 69 17 69 50
0 16 -7 33 -16 38 -14 8 -14 10 0 21 40 33 -2 85 -59 73z M1507 3559 c-32 -18
-14 -69 25 -69 19 0 38 28 31 48 -8 20 -37 31 -56 21z m43 -28 c0 -24 -25 -34
-40 -16 -15 18 -5 35 21 35 12 0 19 -7 19 -19z M3085 3562 c-38 -8 -36 -19 2
-18 32 1 38 -2 41 -22 3 -17 -4 -26 -30 -37 -24 -11 -28 -14 -12 -15 34 0 57
-23 49 -49 -6 -20 -12 -22 -51 -19 -44 3 -58 -5 -28 -16 55 -21 112 12 100 59
-4 14 -11 25 -17 25 -8 0 -8 4 0 14 32 38 -4 89 -54 78z M3255 3562 c-31 -6
-54 -32 -61 -68 -8 -45 4 -92 28 -105 49 -26 98 23 78 77 -9 23 -15 26 -50 22
-23 -2 -40 1 -40 7 1 20 28 46 56 54 31 8 21 20 -11 13z m25 -97 c7 -8 10 -25
6 -40 -11 -41 -76 -29 -76 15 0 36 47 53 70 25z M3587 3563 c-23 -6 -37 -43
-37 -96 0 -68 34 -100 84 -81 21 8 38 76 30 119 -5 30 -37 68 -54 64 -3 -1
-13 -3 -23 -6z m42 -22 c18 -11 26 -93 12 -120 -13 -23 -40 -28 -59 -9 -15 15
-16 92 -2 119 11 20 27 24 49 10z M4280 3561 c-54 -14 -74 -117 -33 -163 32
-35 93 -8 93 41 0 38 -22 55 -64 48 -30 -5 -34 -3 -29 11 11 31 36 52 60 52
14 0 21 4 18 10 -7 11 -9 11 -45 1z m30 -95 c6 -8 10 -25 8 -38 -4 -32 -52
-38 -68 -9 -22 43 29 83 60 47z M4405 3562 c-11 -2 -24 -8 -30 -14 -7 -6 2 -7
26 -3 27 5 39 2 49 -10 13 -15 11 -20 -9 -36 -13 -11 -31 -19 -40 -20 -9 0 0
-5 19 -12 27 -9 35 -17 35 -37 0 -22 -5 -25 -43 -28 -23 -2 -40 -7 -37 -13 9
-13 67 -10 88 5 21 16 23 64 2 72 -12 5 -12 9 1 29 26 40 -8 78 -61 67z M4617
3563 c-23 -6 -37 -43 -37 -96 0 -68 34 -100 84 -81 21 8 38 76 30 119 -5 30
-37 68 -54 64 -3 -1 -13 -3 -23 -6z m42 -22 c18 -11 26 -93 12 -120 -13 -23
-40 -28 -59 -9 -15 15 -16 92 -2 119 11 20 27 24 49 10z M4770 3562 c-28 -8
-40 -35 -40 -87 0 -59 21 -95 54 -95 38 0 56 30 56 91 0 70 -27 105 -70 91z
m49 -46 c20 -43 4 -110 -28 -114 -31 -5 -41 12 -41 74 0 76 40 100 69 40z
M4895 3557 c-10 -8 -16 -23 -13 -38 2 -19 9 -24 33 -24 25 0 31 4 33 27 4 34
-26 54 -53 35z m43 -28 c4 -19 -19 -31 -38 -19 -18 11 -4 42 17 38 10 -2 19
-10 21 -19z M5297 3563 c-23 -6 -37 -43 -37 -96 0 -68 34 -100 84 -81 21 8 38
76 30 119 -5 30 -37 68 -54 64 -3 -1 -13 -3 -23 -6z m42 -22 c18 -11 26 -93
12 -120 -13 -23 -40 -28 -59 -9 -15 15 -16 92 -2 119 11 20 27 24 49 10z
M5503 3559 c-13 -5 -23 -13 -23 -18 0 -7 9 -7 24 1 14 6 32 8 40 5 28 -11 17
-51 -29 -104 -25 -28 -45 -54 -45 -57 0 -3 27 -6 60 -6 33 0 60 4 60 10 0 6
-21 10 -46 10 l-47 0 42 45 c54 59 54 98 1 117 -8 3 -25 2 -37 -3z M5652 3561
c-13 -3 -23 -9 -23 -13 1 -9 8 -8 30 0 18 7 45 -11 49 -31 2 -9 -17 -38 -42
-65 -25 -27 -46 -54 -46 -61 0 -7 22 -11 60 -11 33 0 60 4 60 10 0 6 -21 10
-46 10 l-46 0 35 39 c41 46 52 73 38 99 -12 23 -37 31 -69 23z M5799 3557
c-40 -20 -47 -118 -11 -159 21 -25 58 -22 76 4 19 27 21 118 4 140 -19 23 -42
28 -69 15z m49 -19 c12 -12 16 -95 6 -122 -3 -9 -17 -16 -30 -16 -41 0 -60 83
-28 128 17 25 34 28 52 10z M6405 3563 c-11 -3 -24 -10 -30 -15 -7 -7 -1 -8
18 -4 66 16 97 -35 35 -56 l-33 -12 31 -8 c65 -16 49 -72 -18 -66 -41 4 -49
-14 -9 -20 39 -6 71 7 83 34 11 23 9 29 -10 44 -19 16 -20 20 -7 30 25 20 19
59 -11 70 -14 6 -26 9 -27 9 -1 -1 -11 -3 -22 -6z M357 3553 c-4 -3 -7 -15 -7
-25 0 -12 -8 -18 -22 -19 -17 -1 -19 -2 -5 -6 10 -3 17 -14 17 -29 0 -18 -6
-24 -22 -25 -19 -1 -20 -2 -5 -6 15 -4 18 -12 15 -34 -6 -39 8 -37 16 2 8 42
42 37 39 -6 l-2 -30 13 29 c8 17 22 33 32 37 17 7 17 8 2 8 -26 1 -23 40 5 51
18 7 19 9 3 9 -14 1 -17 7 -14 26 3 14 2 25 -3 25 -4 0 -9 -10 -11 -22 -2 -14
-11 -24 -24 -26 -18 -3 -21 1 -17 22 5 26 2 32 -10 19z m37 -62 c10 -16 -5
-41 -25 -41 -22 0 -23 4 -9 31 11 20 25 25 34 10z M1165 3509 c-53 -75 -53
-77 -3 -81 36 -2 44 -7 46 -25 4 -31 22 -29 22 1 0 13 6 27 13 29 10 4 10 6 0
6 -9 1 -13 20 -13 61 0 76 -15 78 -65 9z m42 -66 c-3 -2 -19 -3 -37 -1 l-31 3
33 45 33 45 3 -44 c2 -24 1 -45 -1 -48z M1350 3515 c0 -43 1 -45 24 -39 35 8
71 -28 55 -57 -9 -17 -18 -20 -50 -17 -24 2 -38 0 -36 -7 5 -15 46 -18 78 -5
23 10 29 19 29 44 0 39 -15 56 -52 56 -24 0 -28 4 -28 29 0 27 4 30 38 34 34
3 33 4 -10 5 l-48 2 0 -45z M1880 3470 c0 -53 4 -90 10 -90 6 0 10 18 10 41 0
36 2 40 23 37 13 -2 30 -17 42 -40 11 -21 26 -38 33 -38 10 0 7 11 -9 36 -21
34 -21 38 -5 64 16 28 13 58 -8 72 -6 4 -30 8 -53 8 l-43 0 0 -90z m84 64 c28
-27 13 -54 -30 -57 -23 -2 -30 2 -32 21 -7 50 28 70 62 36z M2040 3470 c0 -53
4 -90 10 -90 6 0 10 20 10 45 l0 45 50 0 50 0 0 -45 c0 -25 5 -45 10 -45 6 0
10 37 10 90 0 53 -4 90 -10 90 -5 0 -10 -16 -10 -35 l0 -35 -50 0 -50 0 0 35
c0 19 -4 35 -10 35 -6 0 -10 -37 -10 -90z M2331 3538 c-40 -107 -53 -149 -48
-155 4 -3 11 7 18 23 47 124 57 154 48 154 -5 0 -13 -10 -18 -22z M2462 3473
l-2 -93 50 0 c61 0 67 18 8 22 l-43 3 -6 80 -5 80 -2 -92z M2590 3470 c0 -53
4 -90 10 -90 6 0 10 20 10 45 l0 45 50 0 50 0 0 -45 c0 -25 5 -45 10 -45 6 0
10 37 10 90 0 53 -4 90 -10 90 -5 0 -10 -16 -10 -35 l0 -35 -50 0 -50 0 0 35
c0 19 -4 35 -10 35 -6 0 -10 -37 -10 -90z M3418 3535 c-4 -60 -4 -60 19 -57
30 4 63 -15 63 -36 0 -27 -20 -42 -58 -42 -19 0 -31 -4 -27 -10 9 -15 58 -12
83 6 44 31 18 94 -39 94 -27 0 -30 3 -27 28 3 23 9 28 43 33 l40 6 -47 2 c-44
1 -48 -1 -50 -24z M3700 3530 c0 -16 5 -30 10 -30 6 0 10 14 10 30 0 17 -4 30
-10 30 -5 0 -10 -13 -10 -30z M3750 3528 c0 -36 4 -35 14 5 4 16 2 27 -4 27
-5 0 -10 -14 -10 -32z M6200 3470 l0 -90 29 0 c15 0 42 5 58 10 53 19 70 95
32 144 -17 22 -28 26 -70 26 l-49 0 0 -90z m102 53 c24 -22 23 -78 -2 -103
-11 -11 -33 -20 -50 -20 l-30 0 0 76 0 77 32 -7 c17 -3 40 -14 50 -23z M1280
3395 c0 -8 5 -15 10 -15 6 0 10 7 10 15 0 8 -4 15 -10 15 -5 0 -10 -7 -10 -15z
M3347 3404 c-8 -8 1 -24 14 -24 5 0 9 7 9 15 0 15 -12 20 -23 9z M4520 3395
c0 -9 5 -15 11 -13 6 2 11 8 11 13 0 5 -5 11 -11 13 -6 2 -11 -4 -11 -13z
M5410 3395 c0 -9 5 -15 11 -13 6 2 11 8 11 13 0 5 -5 11 -11 13 -6 2 -11 -4
-11 -13z M1015 2842 c-11 -2 -24 -9 -30 -14 -7 -7 -1 -8 18 -4 66 16 97 -35
35 -56 l-33 -12 33 -8 c29 -8 33 -13 30 -36 -3 -24 -8 -27 -46 -30 -47 -4 -48
-22 -1 -22 46 0 69 17 69 50 0 16 -7 33 -16 38 -14 8 -14 10 0 21 40 33 -2 85
-59 73z M1159 2836 c-34 -16 -39 -80 -9 -96 12 -7 33 -9 46 -6 16 4 24 2 24
-6 -1 -24 -27 -48 -54 -48 -14 0 -26 -4 -26 -10 0 -20 51 -10 75 15 20 19 25
34 25 73 0 70 -33 102 -81 78z m51 -20 c6 -8 10 -25 8 -38 -2 -18 -9 -23 -33
-23 -26 0 -30 4 -33 29 -5 41 32 62 58 32z M1298 2843 c-22 -5 -30 -30 -18
-54 19 -34 70 -18 70 23 0 20 -27 36 -52 31z m37 -23 c9 -15 -14 -40 -31 -33
-22 8 -18 43 5 43 11 0 23 -5 26 -10z M3085 2842 c-38 -8 -36 -19 2 -18 32 1
38 -2 41 -22 3 -17 -4 -26 -30 -37 -24 -11 -28 -14 -12 -15 34 0 57 -23 49
-49 -6 -20 -12 -22 -51 -19 -44 3 -58 -5 -28 -16 55 -21 112 12 100 59 -4 14
-11 25 -17 25 -8 0 -8 4 0 14 32 38 -4 89 -54 78z M3255 2842 c-31 -6 -54 -32
-61 -68 -8 -45 4 -92 28 -105 49 -26 98 23 78 77 -9 23 -15 26 -50 22 -23 -2
-40 1 -40 7 1 20 28 46 56 54 31 8 21 20 -11 13z m25 -97 c7 -8 10 -25 6 -40
-11 -41 -76 -29 -76 15 0 36 47 53 70 25z M3439 2837 c-40 -20 -47 -118 -11
-159 21 -25 58 -22 76 4 19 27 21 118 4 140 -19 23 -42 28 -69 15z m49 -19
c12 -12 16 -95 6 -122 -3 -9 -17 -16 -30 -16 -41 0 -60 83 -28 128 17 25 34
28 52 10z M3587 2843 c-23 -6 -37 -43 -37 -96 0 -68 34 -100 84 -81 21 8 38
76 30 119 -5 30 -37 68 -54 64 -3 -1 -13 -3 -23 -6z m42 -22 c18 -11 26 -93
12 -120 -13 -23 -40 -28 -59 -9 -15 15 -16 92 -2 119 11 20 27 24 49 10z
M4280 2841 c-54 -14 -74 -117 -33 -163 32 -35 93 -8 93 41 0 38 -22 55 -64 48
-30 -5 -34 -3 -29 11 11 31 36 52 60 52 14 0 21 4 18 10 -7 11 -9 11 -45 1z
m30 -95 c6 -8 10 -25 8 -38 -4 -32 -52 -38 -68 -9 -22 43 29 83 60 47z M4405
2842 c-11 -2 -24 -8 -30 -14 -7 -6 2 -7 26 -3 27 5 39 2 49 -10 13 -15 11 -20
-9 -36 -13 -11 -31 -19 -40 -20 -9 0 0 -5 19 -12 27 -9 35 -17 35 -37 0 -22
-5 -25 -43 -28 -23 -2 -40 -7 -37 -13 9 -13 67 -10 88 5 21 16 23 64 2 72 -12
5 -12 9 1 29 26 40 -8 78 -61 67z M4770 2842 c-28 -8 -40 -35 -40 -87 0 -59
21 -95 54 -95 38 0 56 30 56 91 0 70 -27 105 -70 91z m49 -46 c20 -43 4 -110
-28 -114 -31 -5 -41 12 -41 74 0 76 40 100 69 40z M4895 2837 c-10 -8 -16 -23
-13 -38 2 -19 9 -24 33 -24 25 0 31 4 33 27 4 34 -26 54 -53 35z m43 -28 c4
-19 -19 -31 -38 -19 -18 11 -4 42 17 38 10 -2 19 -10 21 -19z M5297 2843 c-23
-6 -37 -43 -37 -96 0 -68 34 -100 84 -81 21 8 38 76 30 119 -5 30 -37 68 -54
64 -3 -1 -13 -3 -23 -6z m42 -22 c18 -11 26 -93 12 -120 -13 -23 -40 -28 -59
-9 -15 15 -16 92 -2 119 11 20 27 24 49 10z M5503 2839 c-13 -5 -23 -13 -23
-18 0 -7 9 -7 24 1 14 6 32 8 40 5 28 -11 17 -51 -29 -104 -25 -28 -45 -54
-45 -57 0 -3 27 -6 60 -6 33 0 60 4 60 10 0 6 -21 10 -46 10 l-47 0 42 45 c54
59 54 98 1 117 -8 3 -25 2 -37 -3z M5799 2837 c-40 -20 -47 -118 -11 -159 21
-25 58 -22 76 4 19 27 21 118 4 140 -19 23 -42 28 -69 15z m49 -19 c12 -12 16
-95 6 -122 -3 -9 -17 -16 -30 -16 -41 0 -60 83 -28 128 17 25 34 28 52 10z
M6405 2843 c-11 -3 -24 -10 -30 -15 -7 -7 -1 -8 18 -4 66 16 97 -35 35 -56
l-33 -12 31 -8 c65 -16 49 -72 -18 -66 -41 4 -49 -14 -9 -20 39 -6 71 7 83 34
11 23 9 29 -10 44 -19 16 -20 20 -7 30 25 20 19 59 -11 70 -14 6 -26 9 -27 9
-1 -1 -11 -3 -22 -6z M357 2833 c-4 -3 -7 -15 -7 -25 0 -12 -8 -18 -22 -19
-17 -1 -19 -2 -5 -6 10 -3 17 -14 17 -29 0 -18 -6 -24 -22 -25 -19 -1 -20 -2
-5 -6 15 -4 18 -12 15 -34 -6 -39 8 -37 16 2 8 42 42 37 39 -6 l-2 -30 13 29
c8 17 22 33 32 37 17 7 17 8 2 8 -26 1 -23 40 5 51 18 7 19 9 3 9 -14 1 -17 7
-14 26 3 14 2 25 -3 25 -4 0 -9 -10 -11 -22 -2 -14 -11 -24 -24 -26 -18 -3
-21 1 -17 22 5 26 2 32 -10 19z m37 -62 c10 -16 -5 -41 -25 -41 -22 0 -23 4
-9 31 11 20 25 25 34 10z M479 2814 c-19 -50 15 -91 66 -78 29 7 31 -2 9 -34
-10 -14 -25 -22 -45 -22 -16 0 -29 -4 -29 -10 0 -13 46 -13 70 0 10 5 23 24
29 41 26 75 3 129 -55 129 -28 0 -36 -5 -45 -26z m83 -9 c14 -30 -3 -55 -38
-55 -17 0 -25 7 -30 25 -13 51 46 77 68 30z M1880 2750 c0 -53 4 -90 10 -90 6
0 10 18 10 41 0 36 2 40 23 37 13 -2 30 -17 42 -40 11 -21 26 -38 33 -38 10 0
7 11 -9 36 -21 34 -21 38 -5 64 16 28 13 58 -8 72 -6 4 -30 8 -53 8 l-43 0 0
-90z m84 64 c28 -27 13 -54 -30 -57 -23 -2 -30 2 -32 21 -7 50 28 70 62 36z
M2040 2750 c0 -53 4 -90 10 -90 6 0 10 20 10 45 l0 45 50 0 50 0 0 -45 c0 -25
5 -45 10 -45 6 0 10 37 10 90 0 53 -4 90 -10 90 -5 0 -10 -16 -10 -35 l0 -35
-50 0 -50 0 0 35 c0 19 -4 35 -10 35 -6 0 -10 -37 -10 -90z M2331 2818 c-40
-107 -53 -149 -48 -155 4 -3 11 7 18 23 47 124 57 154 48 154 -5 0 -13 -10
-18 -22z M2462 2753 l-2 -93 50 0 c61 0 67 18 8 22 l-43 3 -6 80 -5 80 -2 -92z
M2590 2750 c0 -53 4 -90 10 -90 6 0 10 20 10 45 l0 45 50 0 50 0 0 -45 c0 -25
5 -45 10 -45 6 0 10 37 10 90 0 53 -4 90 -10 90 -5 0 -10 -16 -10 -35 l0 -35
-50 0 -50 0 0 35 c0 19 -4 35 -10 35 -6 0 -10 -37 -10 -90z M3700 2810 c0 -16
5 -30 10 -30 6 0 10 14 10 30 0 17 -4 30 -10 30 -5 0 -10 -13 -10 -30z M3750
2808 c0 -36 4 -35 14 5 4 16 2 27 -4 27 -5 0 -10 -14 -10 -32z M4590 2795 c0
-43 1 -45 24 -39 35 8 71 -28 55 -57 -9 -17 -18 -20 -50 -17 -24 2 -38 0 -36
-7 5 -15 46 -18 78 -5 23 10 29 19 29 44 0 39 -15 56 -52 56 -24 0 -28 4 -28
29 0 27 4 30 38 34 34 3 33 4 -10 5 l-48 2 0 -45z M5649 2820 l-24 -20 27 6
27 6 4 -79 3 -78 2 93 c1 50 -2 92 -7 92 -5 0 -19 -9 -32 -20z M6200 2750 l0
-90 29 0 c15 0 42 5 58 10 53 19 70 95 32 144 -17 22 -28 26 -70 26 l-49 0 0
-90z m102 53 c24 -22 23 -78 -2 -103 -11 -11 -33 -20 -50 -20 l-30 0 0 76 0
77 32 -7 c17 -3 40 -14 50 -23z M3347 2684 c-8 -8 1 -24 14 -24 5 0 9 7 9 15
0 15 -12 20 -23 9z M4520 2675 c0 -9 5 -15 11 -13 6 2 11 8 11 13 0 5 -5 11
-11 13 -6 2 -11 -4 -11 -13z M5410 2675 c0 -9 5 -15 11 -13 6 2 11 8 11 13 0
5 -5 11 -11 13 -6 2 -11 -4 -11 -13z M1298 2103 c-22 -5 -30 -30 -18 -54 12
-21 40 -25 58 -7 28 28 1 70 -40 61z m37 -23 c9 -15 -14 -40 -31 -33 -22 8
-18 43 5 43 11 0 23 -5 26 -10z M3085 2102 c-38 -8 -36 -19 2 -18 32 1 38 -2
41 -22 3 -17 -4 -26 -30 -37 -24 -11 -28 -14 -12 -15 34 0 57 -23 49 -49 -6
-20 -12 -22 -51 -19 -44 3 -58 -5 -28 -16 55 -21 112 12 100 59 -4 14 -11 25
-17 25 -8 0 -8 4 0 14 32 38 -4 89 -54 78z M4280 2101 c-54 -14 -74 -117 -33
-163 32 -35 93 -8 93 41 0 38 -22 55 -64 48 -30 -5 -34 -3 -29 11 11 31 36 52
60 52 14 0 21 4 18 10 -7 11 -9 11 -45 1z m30 -95 c6 -8 10 -25 8 -38 -4 -32
-52 -38 -68 -9 -22 43 29 83 60 47z M4617 2103 c-23 -6 -37 -43 -37 -96 0 -68
34 -100 84 -81 21 8 38 76 30 119 -5 30 -37 68 -54 64 -3 -1 -13 -3 -23 -6z
m42 -22 c18 -11 26 -93 12 -120 -13 -23 -40 -28 -59 -9 -15 15 -16 92 -2 119
11 20 27 24 49 10z M4770 2102 c-28 -8 -40 -35 -40 -87 0 -59 21 -95 54 -95
38 0 56 30 56 91 0 70 -27 105 -70 91z m49 -46 c20 -43 4 -110 -28 -114 -31
-5 -41 12 -41 74 0 76 40 100 69 40z M4895 2097 c-10 -8 -16 -23 -13 -38 2
-19 9 -24 33 -24 25 0 31 4 33 27 4 34 -26 54 -53 35z m43 -28 c4 -19 -19 -31
-38 -19 -18 11 -4 42 17 38 10 -2 19 -10 21 -19z M5297 2103 c-23 -6 -37 -43
-37 -96 0 -68 34 -100 84 -81 21 8 38 76 30 119 -5 30 -37 68 -54 64 -3 -1
-13 -3 -23 -6z m42 -22 c18 -11 26 -93 12 -120 -13 -23 -40 -28 -59 -9 -15 15
-16 92 -2 119 11 20 27 24 49 10z M5503 2099 c-13 -5 -23 -13 -23 -18 0 -7 9
-7 24 1 14 6 32 8 40 5 28 -11 17 -51 -29 -104 -25 -28 -45 -54 -45 -57 0 -3
27 -6 60 -6 33 0 60 4 60 10 0 6 -21 10 -46 10 l-47 0 42 45 c54 59 54 98 1
117 -8 3 -25 2 -37 -3z M5657 2103 c-23 -6 -37 -43 -37 -96 0 -68 34 -100 84
-81 21 8 38 76 30 119 -5 30 -37 68 -54 64 -3 -1 -13 -3 -23 -6z m42 -22 c18
-11 26 -93 12 -120 -13 -23 -40 -28 -59 -9 -15 15 -16 92 -2 119 11 20 27 24
49 10z M5799 2097 c-40 -20 -47 -118 -11 -159 21 -25 58 -22 76 4 19 27 21
118 4 140 -19 23 -42 28 -69 15z m49 -19 c12 -12 16 -95 6 -122 -3 -9 -17 -16
-30 -16 -41 0 -60 83 -28 128 17 25 34 28 52 10z M6405 2103 c-11 -3 -24 -10
-30 -15 -7 -7 -1 -8 18 -4 66 16 97 -35 35 -56 l-33 -12 31 -8 c65 -16 49 -72
-18 -66 -41 4 -49 -14 -9 -20 39 -6 71 7 83 34 11 23 9 29 -10 44 -19 16 -20
20 -7 30 25 20 19 59 -11 70 -14 6 -26 9 -27 9 -1 -1 -11 -3 -22 -6z M320
2010 c0 -53 4 -90 10 -90 6 0 10 16 10 35 0 30 4 35 28 40 44 10 57 20 60 49
5 40 -14 56 -64 56 l-44 0 0 -90z m71 70 c37 -20 17 -70 -28 -70 -20 0 -23 5
-23 40 0 43 13 50 51 30z M456 2078 c4 -13 15 -52 24 -87 9 -36 21 -66 26 -68
6 -2 21 31 34 74 l22 78 23 -74 c12 -41 26 -76 32 -78 5 -2 19 32 31 75 24 87
26 102 14 102 -5 0 -15 -26 -22 -57 -19 -88 -24 -89 -45 -13 -11 38 -25 70
-31 70 -11 0 -44 -90 -44 -119 0 -6 -4 -11 -10 -11 -5 0 -10 6 -10 13 0 28
-31 117 -41 117 -6 0 -7 -9 -3 -22z M1012 2040 c-23 -32 -42 -61 -42 -64 0 -3
19 -6 43 -8 35 -2 43 -7 45 -25 4 -28 22 -31 22 -3 0 10 8 24 18 29 16 10 16
10 0 11 -15 0 -18 10 -18 60 0 78 -14 78 -68 0z m48 -15 c0 -43 -1 -45 -30
-45 -16 0 -30 3 -30 8 0 9 49 82 55 82 3 0 5 -20 5 -45z M1165 2049 c-53 -75
-53 -77 -3 -81 36 -2 44 -7 46 -25 4 -31 22 -29 22 1 0 13 6 27 13 29 10 4 10
6 0 6 -9 1 -13 20 -13 61 0 76 -15 78 -65 9z m42 -66 c-3 -2 -19 -3 -37 -1
l-31 3 33 45 33 45 3 -44 c2 -24 1 -45 -1 -48z M1880 2010 c0 -53 4 -90 10
-90 6 0 10 18 10 41 0 36 2 40 23 37 13 -2 30 -17 42 -40 11 -21 26 -38 33
-38 10 0 7 11 -9 36 -21 34 -21 38 -5 64 16 28 13 58 -8 72 -6 4 -30 8 -53 8
l-43 0 0 -90z m84 64 c28 -27 13 -54 -30 -57 -23 -2 -30 2 -32 21 -7 50 28 70
62 36z M2040 2010 c0 -53 4 -90 10 -90 6 0 10 20 10 45 l0 45 50 0 50 0 0 -45
c0 -25 5 -45 10 -45 6 0 10 37 10 90 0 53 -4 90 -10 90 -5 0 -10 -16 -10 -35
l0 -35 -50 0 -50 0 0 35 c0 19 -4 35 -10 35 -6 0 -10 -37 -10 -90z M2331 2078
c-40 -107 -53 -149 -48 -155 4 -3 11 7 18 23 47 124 57 154 48 154 -5 0 -13
-10 -18 -22z M2462 2013 l-2 -93 50 0 c61 0 67 18 8 22 l-43 3 -6 80 -5 80 -2
-92z M2590 2010 c0 -53 4 -90 10 -90 6 0 10 20 10 45 l0 45 50 0 50 0 0 -45
c0 -25 5 -45 10 -45 6 0 10 37 10 90 0 53 -4 90 -10 90 -5 0 -10 -16 -10 -35
l0 -35 -50 0 -50 0 0 35 c0 19 -4 35 -10 35 -6 0 -10 -37 -10 -90z M3200 2055
c0 -43 1 -45 24 -39 35 8 71 -28 55 -57 -9 -17 -18 -20 -50 -17 -24 2 -38 0
-36 -7 5 -15 46 -18 78 -5 23 10 29 19 29 44 0 39 -15 56 -52 56 -24 0 -28 4
-28 29 0 27 4 30 38 34 34 3 33 4 -10 5 l-48 2 0 -45z M3448 2093 c28 -2 52
-6 52 -8 0 -2 -16 -38 -35 -81 -39 -85 -39 -84 -26 -84 8 0 81 153 81 171 0 5
-28 8 -62 7 l-63 -2 53 -3z M3560 2055 c0 -43 1 -45 24 -39 35 8 71 -28 55
-57 -9 -17 -18 -20 -50 -17 -24 2 -38 0 -36 -7 5 -15 46 -18 78 -5 23 10 29
19 29 44 0 39 -15 56 -52 56 -24 0 -28 4 -28 29 0 27 4 30 38 34 34 3 33 4
-10 5 l-48 2 0 -45z M3700 2070 c0 -16 5 -30 10 -30 6 0 10 14 10 30 0 17 -4
30 -10 30 -5 0 -10 -13 -10 -30z M3750 2068 c0 -36 4 -35 14 5 4 16 2 27 -4
27 -5 0 -10 -14 -10 -32z M4405 2049 c-53 -75 -53 -77 -3 -81 36 -2 44 -7 46
-25 4 -31 22 -29 22 1 0 13 6 27 13 29 10 4 10 6 0 6 -9 1 -13 20 -13 61 0 76
-15 78 -65 9z m42 -66 c-3 -2 -19 -3 -37 -1 l-31 3 33 45 33 45 3 -44 c2 -24
1 -45 -1 -48z M6200 2010 l0 -90 29 0 c15 0 42 5 58 10 53 19 70 95 32 144
-17 22 -28 26 -70 26 l-49 0 0 -90z m102 53 c24 -22 23 -78 -2 -103 -11 -11
-33 -20 -50 -20 l-30 0 0 76 0 77 32 -7 c17 -3 40 -14 50 -23z M3347 1944 c-8
-8 1 -24 14 -24 5 0 9 7 9 15 0 15 -12 20 -23 9z M4520 1935 c0 -9 5 -15 11
-13 6 2 11 8 11 13 0 5 -5 11 -11 13 -6 2 -11 -4 -11 -13z M5410 1935 c0 -9 5
-15 11 -13 6 2 11 8 11 13 0 5 -5 11 -11 13 -6 2 -11 -4 -11 -13z M1159 1356
c-34 -16 -39 -80 -9 -96 12 -7 33 -9 46 -6 16 4 24 2 24 -6 -1 -24 -27 -48
-54 -48 -14 0 -26 -4 -26 -10 0 -20 51 -10 75 15 20 19 25 34 25 73 0 70 -33
102 -81 78z m51 -20 c6 -8 10 -25 8 -38 -2 -18 -9 -23 -33 -23 -26 0 -30 4
-33 29 -5 41 32 62 58 32z M1298 1363 c-22 -5 -30 -30 -18 -54 12 -21 40 -25
58 -7 28 28 1 70 -40 61z m37 -23 c9 -15 -14 -40 -31 -33 -22 8 -18 43 5 43
11 0 23 -5 26 -10z M3085 1362 c-38 -8 -36 -19 2 -18 32 1 38 -2 41 -22 3 -17
-4 -26 -30 -37 -24 -11 -28 -14 -12 -15 34 0 57 -23 49 -49 -6 -20 -12 -22
-51 -19 -44 3 -58 -5 -28 -16 55 -21 112 12 100 59 -4 14 -11 25 -17 25 -8 0
-8 4 0 14 32 38 -4 89 -54 78z M3587 1363 c-23 -6 -37 -43 -37 -96 0 -68 34
-100 84 -81 21 8 38 76 30 119 -5 30 -37 68 -54 64 -3 -1 -13 -3 -23 -6z m42
-22 c18 -11 26 -93 12 -120 -13 -23 -40 -28 -59 -9 -15 15 -16 92 -2 119 11
20 27 24 49 10z M4280 1361 c-54 -14 -74 -117 -33 -163 32 -35 93 -8 93 41 0
38 -22 55 -64 48 -30 -5 -34 -3 -29 11 11 31 36 52 60 52 14 0 21 4 18 10 -7
11 -9 11 -45 1z m30 -95 c6 -8 10 -25 8 -38 -4 -32 -52 -38 -68 -9 -22 43 29
83 60 47z M4617 1363 c-23 -6 -37 -43 -37 -96 0 -68 34 -100 84 -81 21 8 38
76 30 119 -5 30 -37 68 -54 64 -3 -1 -13 -3 -23 -6z m42 -22 c18 -11 26 -93
12 -120 -13 -23 -40 -28 -59 -9 -15 15 -16 92 -2 119 11 20 27 24 49 10z
M4770 1362 c-28 -8 -40 -35 -40 -87 0 -59 21 -95 54 -95 38 0 56 30 56 91 0
70 -27 105 -70 91z m49 -46 c20 -43 4 -110 -28 -114 -31 -5 -41 12 -41 74 0
76 40 100 69 40z M4895 1357 c-10 -8 -16 -23 -13 -38 2 -19 9 -24 33 -24 25 0
31 4 33 27 4 34 -26 54 -53 35z m43 -28 c4 -19 -19 -31 -38 -19 -18 11 -4 42
17 38 10 -2 19 -10 21 -19z M5297 1363 c-23 -6 -37 -43 -37 -96 0 -68 34 -100
84 -81 21 8 38 76 30 119 -5 30 -37 68 -54 64 -3 -1 -13 -3 -23 -6z m42 -22
c18 -11 26 -93 12 -120 -13 -23 -40 -28 -59 -9 -15 15 -16 92 -2 119 11 20 27
24 49 10z M6405 1363 c-11 -3 -24 -10 -30 -15 -7 -7 -1 -8 18 -4 66 16 97 -35
35 -56 l-33 -12 31 -8 c65 -16 49 -72 -18 -66 -41 4 -49 -14 -9 -20 39 -6 71
7 83 34 11 23 9 29 -10 44 -19 16 -20 20 -7 30 25 20 19 59 -11 70 -14 6 -26
9 -27 9 -1 -1 -11 -3 -22 -6z M328 1270 c-20 -49 -32 -90 -26 -90 5 0 15 14
21 30 10 26 16 30 50 30 33 0 39 -4 48 -30 6 -16 15 -30 21 -30 6 0 8 6 5 13
-2 6 -17 47 -33 90 -16 42 -33 77 -39 77 -7 0 -28 -40 -47 -90z m66 13 c6 -20
4 -23 -18 -23 -29 0 -31 6 -15 47 11 30 19 24 33 -24z M464 1338 c4 -13 14
-53 23 -90 9 -38 22 -68 28 -68 6 0 19 32 29 70 10 39 22 70 26 70 4 0 16 -31
26 -70 10 -38 23 -70 29 -70 6 0 21 38 33 84 25 96 25 96 13 96 -5 0 -17 -33
-27 -72 l-18 -73 -22 70 c-21 67 -39 91 -49 63 -2 -7 -12 -40 -21 -73 l-17
-60 -20 73 c-10 39 -24 72 -29 72 -6 0 -8 -10 -4 -22z M1012 1300 c-23 -32
-42 -61 -42 -64 0 -3 19 -6 43 -8 35 -2 43 -7 45 -25 4 -28 22 -31 22 -3 0 10
8 24 18 29 16 10 16 10 0 11 -15 0 -18 10 -18 60 0 78 -14 78 -68 0z m48 -15
c0 -43 -1 -45 -30 -45 -16 0 -30 3 -30 8 0 9 49 82 55 82 3 0 5 -20 5 -45z
M1880 1270 c0 -53 4 -90 10 -90 6 0 10 18 10 41 0 36 2 40 23 37 13 -2 30 -17
42 -40 11 -21 26 -38 33 -38 10 0 7 11 -9 36 -21 34 -21 38 -5 64 16 28 13 58
-8 72 -6 4 -30 8 -53 8 l-43 0 0 -90z m84 64 c28 -27 13 -54 -30 -57 -23 -2
-30 2 -32 21 -7 50 28 70 62 36z M2040 1270 c0 -53 4 -90 10 -90 6 0 10 20 10
45 l0 45 50 0 50 0 0 -45 c0 -25 5 -45 10 -45 6 0 10 37 10 90 0 53 -4 90 -10
90 -5 0 -10 -16 -10 -35 l0 -35 -50 0 -50 0 0 35 c0 19 -4 35 -10 35 -6 0 -10
-37 -10 -90z M2331 1338 c-40 -107 -53 -149 -48 -155 4 -3 11 7 18 23 47 124
57 154 48 154 -5 0 -13 -10 -18 -22z M2462 1273 l-2 -93 50 0 c61 0 67 18 8
22 l-43 3 -6 80 -5 80 -2 -92z M2590 1270 c0 -53 4 -90 10 -90 6 0 10 20 10
45 l0 45 50 0 50 0 0 -45 c0 -25 5 -45 10 -45 6 0 10 37 10 90 0 53 -4 90 -10
90 -5 0 -10 -16 -10 -35 l0 -35 -50 0 -50 0 0 35 c0 19 -4 35 -10 35 -6 0 -10
-37 -10 -90z M3200 1315 c0 -43 1 -45 24 -39 35 8 71 -28 55 -57 -9 -17 -18
-20 -50 -17 -24 2 -38 0 -36 -7 5 -15 46 -18 78 -5 23 10 29 19 29 44 0 39
-15 56 -52 56 -24 0 -28 4 -28 29 0 27 4 30 38 34 34 3 33 4 -10 5 l-48 2 0
-45z M3418 1335 c-4 -60 -4 -60 19 -57 30 4 63 -15 63 -36 0 -27 -20 -42 -58
-42 -19 0 -31 -4 -27 -10 9 -15 58 -12 83 6 44 31 18 94 -39 94 -27 0 -30 3
-27 28 3 23 9 28 43 33 l40 6 -47 2 c-44 1 -48 -1 -50 -24z M3700 1330 c0 -16
5 -30 10 -30 6 0 10 14 10 30 0 17 -4 30 -10 30 -5 0 -10 -13 -10 -30z M3750
1328 c0 -36 4 -35 14 5 4 16 2 27 -4 27 -5 0 -10 -14 -10 -32z M4405 1309
c-53 -75 -53 -77 -3 -81 36 -2 44 -7 46 -25 4 -31 22 -29 22 1 0 13 6 27 13
29 10 4 10 6 0 6 -9 1 -13 20 -13 61 0 76 -15 78 -65 9z m42 -66 c-3 -2 -19
-3 -37 -1 l-31 3 33 45 33 45 3 -44 c2 -24 1 -45 -1 -48z M5500 1340 c-18 -14
-20 -20 -9 -20 8 0 20 5 27 12 9 9 12 -6 12 -70 0 -48 4 -82 10 -82 6 0 10 37
10 90 0 98 -5 105 -50 70z M5663 1353 c26 -2 47 -8 47 -13 0 -5 -15 -43 -34
-84 -19 -42 -30 -76 -25 -76 8 0 89 159 89 175 0 3 -28 4 -62 3 -57 -1 -58 -2
-15 -5z M5778 1335 c-4 -60 -4 -60 19 -57 30 4 63 -15 63 -36 0 -27 -20 -42
-58 -42 -19 0 -31 -4 -27 -10 9 -15 58 -12 83 6 44 31 18 94 -39 94 -27 0 -30
3 -27 28 3 23 9 28 43 33 l40 6 -47 2 c-44 1 -48 -1 -50 -24z M6200 1270 l0
-90 29 0 c15 0 42 5 58 10 53 19 70 95 32 144 -17 22 -28 26 -70 26 l-49 0 0
-90z m102 53 c24 -22 23 -78 -2 -103 -11 -11 -33 -20 -50 -20 l-30 0 0 76 0
77 32 -7 c17 -3 40 -14 50 -23z M3347 1204 c-8 -8 1 -24 14 -24 5 0 9 7 9 15
0 15 -12 20 -23 9z M4520 1195 c0 -9 5 -15 11 -13 6 2 11 8 11 13 0 5 -5 11
-11 13 -6 2 -11 -4 -11 -13z M5410 1195 c0 -9 5 -15 11 -13 6 2 11 8 11 13 0
5 -5 11 -11 13 -6 2 -11 -4 -11 -13z M338 616 c-27 -13 -35 -49 -16 -66 7 -6
28 -20 46 -31 47 -28 40 -53 -16 -57 -23 -2 -40 -7 -37 -13 9 -14 58 -11 83 7
40 28 24 65 -40 92 -52 22 -23 74 32 57 11 -3 20 -2 20 3 0 15 -47 20 -72 8z
M1298 623 c-22 -5 -30 -30 -18 -54 19 -34 70 -18 70 23 0 20 -27 36 -52 31z
m37 -23 c9 -15 -14 -40 -31 -33 -22 8 -18 43 5 43 11 0 23 -5 26 -10z M3085
622 c-38 -8 -36 -19 2 -18 32 1 38 -2 41 -22 3 -17 -4 -26 -30 -37 -24 -11
-28 -14 -12 -15 34 0 57 -23 49 -49 -6 -20 -12 -22 -51 -19 -44 3 -58 -5 -28
-16 55 -21 112 12 100 59 -4 14 -11 25 -17 25 -8 0 -8 4 0 14 32 38 -4 89 -54
78z M3432 619 c-12 -5 -22 -13 -22 -18 0 -7 9 -7 24 1 69 31 75 -32 11 -101
-25 -26 -45 -51 -45 -55 0 -3 27 -6 60 -6 33 0 60 4 60 10 0 6 -21 10 -46 10
l-47 0 42 45 c34 37 42 52 39 77 -3 36 -36 51 -76 37z M4280 621 c-54 -14 -74
-117 -33 -163 32 -35 93 -8 93 41 0 38 -22 55 -64 48 -30 -5 -34 -3 -29 11 11
31 36 52 60 52 14 0 21 4 18 10 -7 11 -9 11 -45 1z m30 -95 c6 -8 10 -25 8
-38 -4 -32 -52 -38 -68 -9 -22 43 29 83 60 47z M4617 623 c-23 -6 -37 -43 -37
-96 0 -68 34 -100 84 -81 21 8 38 76 30 119 -5 30 -37 68 -54 64 -3 -1 -13 -3
-23 -6z m42 -22 c18 -11 26 -93 12 -120 -13 -23 -40 -28 -59 -9 -15 15 -16 92
-2 119 11 20 27 24 49 10z M4770 622 c-28 -8 -40 -35 -40 -87 0 -59 21 -95 54
-95 38 0 56 30 56 91 0 70 -27 105 -70 91z m49 -46 c20 -43 4 -110 -28 -114
-31 -5 -41 12 -41 74 0 76 40 100 69 40z M4895 617 c-10 -8 -16 -23 -13 -38 2
-19 9 -24 33 -24 25 0 31 4 33 27 4 34 -26 54 -53 35z m43 -28 c4 -19 -19 -31
-38 -19 -18 11 -4 42 17 38 10 -2 19 -10 21 -19z M5297 623 c-23 -6 -37 -43
-37 -96 0 -68 34 -100 84 -81 21 8 38 76 30 119 -5 30 -37 68 -54 64 -3 -1
-13 -3 -23 -6z m42 -22 c18 -11 26 -93 12 -120 -13 -23 -40 -28 -59 -9 -15 15
-16 92 -2 119 11 20 27 24 49 10z M5799 617 c-40 -20 -47 -118 -11 -159 21
-25 58 -22 76 4 19 27 21 118 4 140 -19 23 -42 28 -69 15z m49 -19 c12 -12 16
-95 6 -122 -3 -9 -17 -16 -30 -16 -41 0 -60 83 -28 128 17 25 34 28 52 10z
M6405 623 c-11 -3 -24 -10 -30 -15 -7 -7 -1 -8 18 -4 66 16 97 -35 35 -56
l-33 -12 31 -8 c65 -16 49 -72 -18 -66 -41 4 -49 -14 -9 -20 39 -6 71 7 83 34
11 23 9 29 -10 44 -19 16 -20 20 -7 30 25 20 19 59 -11 70 -14 6 -26 9 -27 9
-1 -1 -11 -3 -22 -6z M444 598 c4 -13 14 -53 23 -90 9 -38 22 -68 28 -68 6 0
19 32 29 70 10 39 22 70 26 70 4 0 16 -31 26 -70 10 -38 23 -70 29 -70 6 0 21
38 33 84 25 96 25 96 13 96 -5 0 -17 -33 -27 -72 l-18 -73 -22 70 c-21 67 -39
91 -49 63 -2 -7 -12 -40 -21 -73 l-17 -60 -20 73 c-10 39 -24 72 -29 72 -6 0
-8 -10 -4 -22z M990 575 c0 -43 1 -45 24 -39 35 8 71 -28 55 -57 -9 -17 -18
-20 -50 -17 -24 2 -38 0 -36 -7 5 -15 46 -18 78 -5 23 10 29 19 29 44 0 39
-15 56 -52 56 -24 0 -28 4 -28 29 0 27 4 30 38 34 34 3 33 4 -10 5 l-48 2 0
-45z M1165 569 c-53 -75 -53 -77 -3 -81 36 -2 44 -7 46 -25 4 -31 22 -29 22 1
0 13 6 27 13 29 10 4 10 6 0 6 -9 1 -13 20 -13 61 0 76 -15 78 -65 9z m42 -66
c-3 -2 -19 -3 -37 -1 l-31 3 33 45 33 45 3 -44 c2 -24 1 -45 -1 -48z M1880
530 c0 -53 4 -90 10 -90 6 0 10 18 10 41 0 36 2 40 23 37 13 -2 30 -17 42 -40
11 -21 26 -38 33 -38 10 0 7 11 -9 36 -21 34 -21 38 -5 64 16 28 13 58 -8 72
-6 4 -30 8 -53 8 l-43 0 0 -90z m84 64 c28 -27 13 -54 -30 -57 -23 -2 -30 2
-32 21 -7 50 28 70 62 36z M2040 530 c0 -53 4 -90 10 -90 6 0 10 20 10 45 l0
45 50 0 50 0 0 -45 c0 -25 5 -45 10 -45 6 0 10 37 10 90 0 53 -4 90 -10 90 -5
0 -10 -16 -10 -35 l0 -35 -50 0 -50 0 0 35 c0 19 -4 35 -10 35 -6 0 -10 -37
-10 -90z M2331 598 c-40 -107 -53 -149 -48 -155 4 -3 11 7 18 23 47 124 57
154 48 154 -5 0 -13 -10 -18 -22z M2462 533 l-2 -93 50 0 c61 0 67 18 8 22
l-43 3 -6 80 -5 80 -2 -92z M2590 530 c0 -53 4 -90 10 -90 6 0 10 20 10 45 l0
45 50 0 50 0 0 -45 c0 -25 5 -45 10 -45 6 0 10 37 10 90 0 53 -4 90 -10 90 -5
0 -10 -16 -10 -35 l0 -35 -50 0 -50 0 0 35 c0 19 -4 35 -10 35 -6 0 -10 -37
-10 -90z M3200 575 c0 -43 1 -45 24 -39 35 8 71 -28 55 -57 -9 -17 -18 -20
-50 -17 -24 2 -38 0 -36 -7 5 -15 46 -18 78 -5 23 10 29 19 29 44 0 39 -15 56
-52 56 -24 0 -28 4 -28 29 0 27 4 30 38 34 34 3 33 4 -10 5 l-48 2 0 -45z
M3560 575 c0 -43 1 -45 24 -39 35 8 71 -28 55 -57 -9 -17 -18 -20 -50 -17 -24
2 -38 0 -36 -7 5 -15 46 -18 78 -5 23 10 29 19 29 44 0 39 -15 56 -52 56 -24
0 -28 4 -28 29 0 27 4 30 38 34 34 3 33 4 -10 5 l-48 2 0 -45z M3700 590 c0
-16 5 -30 10 -30 6 0 10 14 10 30 0 17 -4 30 -10 30 -5 0 -10 -13 -10 -30z
M3750 588 c0 -36 4 -35 14 5 4 16 2 27 -4 27 -5 0 -10 -14 -10 -32z M4405 569
c-53 -75 -53 -77 -3 -81 36 -2 44 -7 46 -25 4 -31 22 -29 22 1 0 13 6 27 13
29 10 4 10 6 0 6 -9 1 -13 20 -13 61 0 76 -15 78 -65 9z m42 -66 c-3 -2 -19
-3 -37 -1 l-31 3 33 45 33 45 3 -44 c2 -24 1 -45 -1 -48z M5500 600 c-18 -14
-20 -20 -9 -20 8 0 20 5 27 12 9 9 12 -6 12 -70 0 -48 4 -82 10 -82 6 0 10 37
10 90 0 98 -5 105 -50 70z M5630 575 c0 -43 1 -45 24 -39 35 8 71 -28 55 -57
-9 -17 -18 -20 -50 -17 -24 2 -38 0 -36 -7 5 -15 46 -18 78 -5 23 10 29 19 29
44 0 39 -15 56 -52 56 -24 0 -28 4 -28 29 0 27 4 30 38 34 34 3 33 4 -10 5
l-48 2 0 -45z M6200 530 l0 -90 29 0 c15 0 42 5 58 10 53 19 70 95 32 144 -17
22 -28 26 -70 26 l-49 0 0 -90z m102 53 c24 -22 23 -78 -2 -103 -11 -11 -33
-20 -50 -20 l-30 0 0 76 0 77 32 -7 c17 -3 40 -14 50 -23z M3347 464 c-8 -8 1
-24 14 -24 5 0 9 7 9 15 0 15 -12 20 -23 9z M4520 455 c0 -9 5 -15 11 -13 6 2
11 8 11 13 0 5 -5 11 -11 13 -6 2 -11 -4 -11 -13z M5410 455 c0 -9 5 -15 11
-13 6 2 11 8 11 13 0 5 -5 11 -11 13 -6 2 -11 -4 -11 -13z"/>
</g>
</svg>
